/* XPM */
static char *coin[] = {
/* columns rows colors chars-per-pixel */
"50 50 203 2 ",
"   c #756B66",
".  c #7A716C",
"X  c #7C7574",
"o  c #7E7977",
"O  c #7E7979",
"+  c #847364",
"@  c #84756D",
"#  c #8A7B6C",
"$  c #837770",
"%  c #847A74",
"&  c #8A7D75",
"*  c #847D7B",
"=  c #E1A52D",
"-  c #E5AD2B",
";  c #E8B325",
":  c #EDBE23",
">  c #E7B32A",
",  c #ECBC2B",
"<  c #E3AC33",
"1  c #E7B537",
"2  c #EABA33",
"3  c #E9B83B",
"4  c #F3DF0C",
"5  c #E9CB1C",
"6  c #EED51D",
"7  c #EFD81E",
"8  c #F2DB10",
"9  c #F1DC1E",
"0  c #F5E21F",
"q  c #EBCC23",
"w  c #EEC32C",
"e  c #F0CD27",
"r  c #F1C62E",
"t  c #F2C92E",
"y  c #EFD421",
"u  c #EED52A",
"i  c #F2D723",
"p  c #F4DD23",
"a  c #F3D12A",
"s  c #F2DE2D",
"d  c #EEC335",
"f  c #EEC939",
"g  c #F1C631",
"h  c #F2CA33",
"j  c #F2CC3B",
"k  c #EDD433",
"l  c #EDD53C",
"z  c #EFD93D",
"x  c #F3D333",
"c  c #F6E421",
"v  c #F6E62C",
"b  c #F5E435",
"n  c #F5E438",
"m  c #8E8075",
"M  c #87817D",
"N  c #8B827C",
"B  c #968677",
"V  c #92867C",
"C  c #9B8C7D",
"Z  c #E8BA46",
"A  c #E8BE53",
"S  c #EEC642",
"D  c #EDC34B",
"F  c #F3CE42",
"G  c #EDD849",
"H  c #F2D347",
"J  c #F3D14C",
"K  c #EDC756",
"L  c #F1CE59",
"P  c #EFD456",
"I  c #EFDB5B",
"U  c #F4D253",
"Y  c #F4D45B",
"T  c #F7E942",
"R  c #F4E554",
"E  c #F3E45C",
"W  c #F6E959",
"Q  c #EBC762",
"!  c #ECCA64",
"~  c #EFD568",
"^  c #F4D664",
"/  c #F4DC6A",
"(  c #EDCE72",
")  c #EED374",
"_  c #EFDE70",
"`  c #F5DF73",
"'  c #F1DA7C",
"]  c #F4E364",
"[  c #F7EB65",
"{  c #F3E36A",
"}  c #F6EA6C",
"|  c #F2E275",
" . c #F7ED73",
".. c #F3E57A",
"X. c #F7ED7E",
"o. c #858181",
"O. c #8A8483",
"+. c #8F8985",
"@. c #8B8789",
"#. c #8D898A",
"$. c #918683",
"%. c #958C84",
"&. c #9A8C84",
"*. c #938E8D",
"=. c #9A8D8A",
"-. c #9E9084",
";. c #9C938C",
":. c #979393",
">. c #9C9492",
",. c #A5928C",
"<. c #AB9B89",
"1. c #A39493",
"2. c #A49B94",
"3. c #AA9996",
"4. c #A39C9B",
"5. c #A99E9C",
"6. c #B19E9C",
"7. c #B3A28F",
"8. c #AEA096",
"9. c #ABA29C",
"0. c #B3A494",
"q. c #B2A19D",
"w. c #B7AA9C",
"e. c #A79DA1",
"r. c #ACA4A4",
"t. c #AFA8A8",
"y. c #B2A5A4",
"u. c #B9A6A4",
"i. c #B4A9A5",
"p. c #BBAAA4",
"a. c #B1A7A9",
"s. c #B5ABAC",
"d. c #B9ADAD",
"f. c #BAB0A7",
"g. c #B7B0AF",
"h. c #BBB3AE",
"j. c #B6AEB1",
"k. c #BAAFB1",
"l. c #B6B1B1",
"z. c #BCB3B4",
"x. c #BFB8B7",
"c. c #BEB7B9",
"v. c #BFB9BA",
"b. c #C0AF9E",
"n. c #C3B29C",
"m. c #C0AEAD",
"M. c #C5B5A7",
"N. c #C3B5AC",
"B. c #C5B9AD",
"V. c #CABBAD",
"C. c #C2B5B5",
"Z. c #C4BAB4",
"A. c #CABEB2",
"S. c #C1B7B9",
"D. c #C2BBBC",
"F. c #C9BEBD",
"G. c #F2DE85",
"H. c #F4E383",
"J. c #F7EE82",
"K. c #F4E38C",
"L. c #F4EA8B",
"P. c #F4E592",
"I. c #F5EB93",
"U. c #F4E79A",
"Y. c #F6ED9C",
"T. c #F7F09B",
"R. c #CCC2B6",
"E. c #C7C1BF",
"W. c #CCC3BA",
"Q. c #D0C4B7",
"!. c #D0C6BB",
"~. c #D3C9BD",
"^. c #F6EDA2",
"/. c #F4EAA7",
"(. c #F7F0A3",
"). c #F7F0AA",
"_. c #F4ECB3",
"`. c #F7F2B4",
"'. c #F6F2BD",
"]. c #C5BEC1",
"[. c #C9BFC1",
"{. c #C6C1C2",
"}. c #CAC3C4",
"|. c #CEC8C6",
" X c #CDC6C8",
".X c #CFC9CA",
"XX c #D1C5C4",
"oX c #D3CAC4",
"OX c #D1C7C8",
"+X c #D2CCCC",
"@X c #D6D0CE",
"#X c #D9D3CF",
"$X c #D5D1D1",
"%X c #DAD4D3",
"&X c #DDD8D6",
"*X c #DDD7D8",
"=X c #E1DDDD",
"-X c #F6F3C4",
";X c #F6F2CD",
":X c #F7F4D6",
">X c #F7F5DA",
",X c #E0DFE0",
"<X c #E3E2E2",
/* pixels */
"b.!.XXoX!.p.W.#X%X#XXXN.<.A.V.!.!.V.R.R.Q.B.R.R.w.7.Z.Z.h.R.+X@X[.*X*X,X*X,X,X*X*X*X*X,X<X*X*X[.[.u.",
"Z.+X[.D.}.D.S.XX[.].c.d.5.+XD.{..XD.$X+X.X.X|.{.4.R.$X.XE.E.}.W.].[.].[.[.[.[.].].k.C.[.[.].].].k.$.",
"Q.}.z.r.v.D.].c.a.C.D.a.5.#XD.x.E.z.x.E.v.{.l.x.:.R.+XD.].c.i.i.m.a.a.k.[.S.k.k.].k.6.[.].].S.].[.o.",
"Q.[.y.4.[.S.D.D.D.C.z.r.1.+Xz.h.z.E.z.}.E.v.t.v.:.E..X|.D.a.v.x.].a.].].j.].].].a.y.3.k.].].e.].].@.",
"N.k.s.k.S.D.].S.v.S.k.s.9.&Xv.v.v.}.{.E.x.t.E.v.*.F..X].D.].D.D.].].j.S.S.k.S.6.6.].].].].].].j.k.o.",
"m.C.c.k.D.z.z.j.d.z.k.r.2.@X{.E.E.E.{.{.g.v.E.E.#.}.+X].c.].].c.].c.j.z.S.y.3.y.k.].].j.].].S.S.].o.",
"V.F.v.D.j.v.S.y.c.[.s.>.2.|.v.v.D.E.{.x.v.v.E.v.O.~.$Xc.c.c.j.5.S.].j.j.S.a.j.j.].].].].].].].c.].@.",
"Z.S.z.D.z.z.D.S.v.l.z.r.;.D.g.E.{.{.x.l.x.z.E.v.@.R.[.k.k.S.3.d.].j.j.m.].[.v.].C.].].].c.k.].].].@.",
"A.OXv.s.k.c.z.[.].k.y.4.;.@Xt.v.D.D.z.x.g.z.E.{.M R.}.z.F.c.s.j.].[.}.t.k.c.v.].u.k.].].].v.{.v.].@.",
"Q.OXz.a.s.a.c.k.j.k.,.=.=.B.s.v.E.g.:X'.' I | | E I _ _.}.].v.].v.v.].].D.D.D.v.z.c.].v.{.j.].{.].@.",
"F. XD.C.S.m.D.C.S.[.C.,.%.B.p.g.'.K.| I...| ..9 p 8 R } G I I.>.F.{.{.v.D.].].c.c.c.].c.j.t.D.v.].@.",
"~.+Xc.D.a.z.].s.S.d.S.y.;.W.:X).k W I.(.(.(.j , w ]  .b 0 c p G ).r.r.r.e.r.r.r.4.r.r.t.>.4.4.:.1.O ",
"!.OXv.D.v.s.s.z.C.S.C.r.>.`.~ 7 T ).( < = = - - < < = = a c c 9 7 T.Z.h.g.x.h.h.z.h.h.i.9.9.9.;.1.$.",
"R.OXv.D.k.d.z.D.].].k.e.).F c T ' 1 < 3 g t g F J h t t g > a c 0 7 E |.@X#X@X@X[.OX|.oX@X+XoX|.[.,.",
"A. Xv.z.k.D.S.z.c.a.u._.G 0 T ) < D P j g g F f ; r t t t t w w c 0 7 [ W.W.}.E.E.E.E.v.x.S.i.h.m.@ ",
"A.+XD.S.c.S.j.v.S.s.S./ p R ! < K Y j h j G.K.~ L / / h t t t w u c 0 y }.{.E.E.x.E.|.D.E.E.E.E.].$ ",
"F..XS.z.z.z.k.].D.s.P.s W K < K Y j t Y ^.-X( K D G.^.H.j t t t t t c ] I `.Z.}.E.S.D.D.E.E.E.E.E.O.",
"!.[.z.k.].c.D.D.k.;XE W Q < Y ^ f t j /.'.D g : - j J (.3 t t g t t ^ T.p } D.E.E.E.h.Z.g.E.}.}.E.O.",
"F.[.z.k.s.S.C.z.z.L.J (.A L ^ h t g K.'.Z r t : ; t r g g t t t t J / c c l `.s.S.E.{.Z.S.S.F.}.E.+.",
"~.XXk.k.k.S.D.v.C.K./.! 1 Y h t h J P.).F t t : ; t t t t t t g J ^ h i c 7 J.x.Z.d.Z.D.d.N.D.{.v.V ",
"F.OXS.F.].D.D.D.'.F (.Q D h h t H J ` ).J g t : ; t t t t t h J Y j t t c c ..Z.p.d.h.p.i.d.Z.Z.E.V ",
"N.z.v.v.].].D.v.^.G K.A , t h J U h J I.G.U t : ; t t t t h J Y j t t t c 9 G ;XS.C.S.Z.x.C.z.D.E.M ",
"N.}.S.D.v.D.v.l.(.H.) 2 t t U U h t t J Y.U.| L 2 t t t t U Y j t t t t p 9 u _.x.D.x.x.S.x.h.h.0.@ ",
"V.D.s.z.l.z.5.*.(.J.k 2 t U J h t t t t H Y ^.^.K.H.F t U Y h t t t t t y 9 9 (.g.g.h.D.x.s.h.h.2.X ",
"<.* X * * m V B I.v q > Y J t t t t t t t t h f ( ^.^./.^ t t t t t t t y 0 9 ^.. & @ M N X o X   # ",
"n.~.W.R.oX#X=X*XI.c e D J t t t t t t t t h t : ; g ^.>XG.r t t t g t t i 9 6 ).W.W.~.W.R.R.B.Z.R.0.",
"W.*X+X.X}.+X+X}.Y.y G S h t t h t t t t t t t : > U Y I.)., t t t t t t c 9 z '.S.|..XS.E..X X X|.;.",
"Q.+XD.S.[.].].j._.k } x t t t t g t t t t t t : 3 Y j U ).Z t t t t t g c 9 { ].h.}.D.v.v.{.{.].v.@.",
"Z.$X[.].[.k.k.d.:Xx b e g t t t t t t t t t h d 2 j t F ).Z t t t t t e c c J.{.d.d.{.E.{.{.{.v.r.o.",
"R. X].D.D.D.S.k.D.E 9 i r t t t t t t t t t U D ; t t H.).1 t t t t t c 0 a Y.{.c.s.}.{.{.}.D.c.c.O ",
"A.}.D.].[.[.[.}.F.^.9 0 t r t t t h ` Y t Y Y r ; t J Y.^.t t t t t a c 9 E +X{.c.c.F.D.}.}. X}.z.* ",
"W.+X].].c.S.].}.F.;Xs 9 0 a t t t t ` ).-X' h , > / ^./.- t t t t t c c q J.oXC.].{.{.].}.}.].}.v.#.",
"B.[.}.C.C.D.v.S.a.3.I.c c p e t t t h ~ _.P.I.U.P.K.H.1 t t t t a p c y W 4.&Xg.v.}.D.{.{.}.{.l.c.@.",
"V.F.C.y.S.].S.v.k.y.3.I 6 c i e t h U Y h , 2 Z - ; t t t t t t c c p n l.i.#X}.}.{.}.{.}.{.{.{.{.@.",
"F.D.D.y.}.S.c.E.k.u.u.'.z 6 c c x U Y h t t t , , t t t t t t c c 7 7 ).l.r.$XD.E.D.}.v.l.D.{.v.D.O.",
"A. X].5.{.D.D.E.D.d.F.F.{.s 6 v X.{ x t t t t t r t t t t p c 0 9 v T.D.x.9.$XE.v.{.{.D.v.}.t.v.{.@.",
"V.z.5.r.s.t.t.4.4.4.r.i.r.a.n I u v c c c a t t t t c c c c 9 6 } D.{.|.l.2.+X{.{.}.}.v.].v.z.t.i.o.",
"0.p.i.8.i.9.q.2.9.9.9.9.2.2.;.;.4 6 7 c c 0 c c 0 0 0 0 p 5 0 X.x.E.{.D.l.9.@X}.}.}..X}.{.{.v.t.a.O.",
"B.+X}.Z.#XoX}.E.c.}.|.}.OXoX%X}.+XL.b z y 6 9 9 9 6 5 l T } F.S.S.}.}.{.l.r.&X}.}.{.{.}.{.t.{.D.v.+.",
"!.|.v.v.E.x.D.z.D.z.v.D.C.F.E.S.x.D.D.x. .R [ [ [ W X.>X}.c.v.S.D.E.E.v.l.r.&X}.{.{.l.}.{.].]. X}.$.",
"R.}.z.v.v.E.c.c.x.c.y.y.i.D.k.D.c.S.x.x.x.x.{.S.M B.}.{.F.}.t.g.}.D.D.{.i.2.@X}.v.v.c.c.v.c.{.{.}.#.",
"!.+Xv.D.D.D.d.z.x.S.s.z.h.F.c.c.s.z.D.c.D.x.E.D.o.Z..Xv.g.{.D.l.g.D.c.D.s.2.%Xz.c.v.].l.v.c.{.].D.O.",
"E.|.E.D.S.D.c.h.g.S.F.s.e.D.S.a.z.S.F.z.D.g.c.D.o.R..Xc.z.E.E.E.D.z.Z.v.l.9.&XF.{.].c. X].].].].l.* ",
"!.}.D.v.v.D.c.x.z.h.s.r.S.d.-.3.d.s.z.z.l.a.g.d.M Z.E.s.s.v.D.{.E.{.D.D.l.4..X{.}.{.{.}.{.}.}.}.D.M ",
"R.D.z.c.z.v.z.c.c.v.E.v.S.a.r.r.d.g.y.D.v.z.D.a.X V.E.x.g.D.E.{.{.D.}.D.l.>.|.c.].l.}.}.{.{.{.}.c.N ",
"R.|.S.i.v.D.z.D.D.E.v.D.F.D.x.t.g.z.D.c.l.z.F.c.o M.W.D.v.E.{.F.z.g.p.Z.t.9.R.v.z.c.}.}.{.{.].v.z.N ",
"A.{.z.F.E.{.x.F.D.D.S.z.v.F.a.S.c.c.1.d.z.D.z.c.*.M..XS.E.z.D.D.z.}.[.XX:.8.$X}.v.{.c.}.}.v.c.].z.M ",
"B.}.z.a.S.D.z.c.v.D.{.r.l.l.E.D.v.z.S.h.c.v.v.v.+.R.{.{.}.}.D.}.D.].{.D.r.>.$X}.].t.r.c.{.v.t.c.v.O.",
"f.S.z.g.g.z.t.r.z.z.t.1.a.v.x.v.x.v.l.r.t.l.c.j.o.R.}.c.z.z.s.z.s.z.s.*.$.-.i.z.i.,.1.l.l.s.3.s.l.O.",
",.%.N % % N m & B &.& & M * X X O M O .   . X X . <.%.O   % o %.V V #   + C C m m m # C C %.m V %.# "
};
