/* XPM */
static char *coin_s_resized[] = {
/* columns rows colors chars-per-pixel */
"59 60 135 2 ",
"   c #FAA60E",
".  c #FAAC0E",
"X  c #FBB30D",
"o  c #FDBE0B",
"O  c #FAA514",
"+  c #FAAB12",
"@  c #FBA61C",
"#  c #FAA91C",
"$  c #FBB313",
"%  c #FBBC14",
"&  c #F9B31B",
"*  c #FABB1C",
"=  c #F7A620",
"-  c #F9A721",
";  c #F6A823",
":  c #FAAC23",
">  c #FCA728",
",  c #F6AC2E",
"<  c #FAAC2B",
"1  c #FAB123",
"2  c #FABA23",
"3  c #F9B62A",
"4  c #F7BB2E",
"5  c #FABC2C",
"6  c #F9AF35",
"7  c #FAAF39",
"8  c #F9BE35",
"9  c #F6B33D",
"0  c #F9B43E",
"q  c #FEC10B",
"w  c #FBC90F",
"e  c #FCC212",
"r  c #FCCB13",
"t  c #FBC31A",
"y  c #FBCC1C",
"u  c #FCD014",
"i  c #FDD51D",
"p  c #FDDA1F",
"a  c #FBC523",
"s  c #FBCB26",
"d  c #FBC42B",
"f  c #FBC82D",
"g  c #FDD521",
"h  c #FDDA22",
"j  c #FCD52A",
"k  c #FBDD2B",
"l  c #F7C731",
"z  c #FBC333",
"x  c #FBC933",
"c  c #FBC43C",
"v  c #F7C93D",
"b  c #FACA3C",
"n  c #FBD133",
"m  c #FCDE31",
"M  c #FAD43A",
"N  c #F7DF39",
"B  c #FBDE3C",
"V  c #F9E02F",
"C  c #F6E033",
"Z  c #F9E132",
"A  c #FAE03D",
"S  c #FCBD43",
"D  c #F5BD4D",
"F  c #F9BC53",
"G  c #FAC641",
"H  c #FBCE46",
"J  c #FAC54C",
"K  c #FACA4B",
"L  c #FBD940",
"P  c #FAD34E",
"I  c #FBD849",
"U  c #FACC50",
"Y  c #F9C75C",
"T  c #FBD557",
"R  c #F9DC53",
"E  c #FCD25E",
"W  c #FADA5A",
"Q  c #FAE243",
"!  c #FAE44B",
"~  c #FBE353",
"^  c #F7E55E",
"/  c #FAE55D",
"(  c #F9CC64",
")  c #FACF69",
"_  c #FAD664",
"`  c #FADE63",
"'  c #FBD56B",
"]  c #FACF7A",
"[  c #F9D174",
"{  c #FBD973",
"}  c #FAD77B",
"|  c #F8DD78",
" . c #FAE562",
".. c #F9E965",
"X. c #FBE66B",
"o. c #FAE86A",
"O. c #F9E974",
"+. c #FBE378",
"@. c #FBEB7C",
"#. c #FCD684",
"$. c #FBD48E",
"%. c #F9DC8C",
"&. c #FBDE9D",
"*. c #FAE28C",
"=. c #FBEE8A",
"-. c #FBF18A",
";. c #FBE294",
":. c #FCED94",
">. c #FCEB9B",
",. c #FCF094",
"<. c #FCF19C",
"1. c #F9DEA5",
"2. c #FBE3A2",
"3. c #FBEBA4",
"4. c #FBE5AB",
"5. c #FBE9AC",
"6. c #FCF2A5",
"7. c #FCF4AA",
"8. c #F9E4B3",
"9. c #FBECB5",
"0. c #F9E6BC",
"q. c #FAEABB",
"w. c #FCEAC4",
"e. c #FBF0CC",
"r. c #F8EED0",
"t. c #FCEED8",
"y. c #FBF2D5",
"u. c #F7F2DA",
"i. c #FBF2DB",
"p. c #FCF6E3",
"a. c #FDF7E9",
"s. c #FCF9ED",
"d. c #FCFAF4",
"f. c #FDFDFD",
"g. c None",
/* pixels */
"g.g.g.g.g.g.g.g.g.g.g.g.g.g.g.g.g.g.g.g.g.g.g.g.g.g.g.g.g.g.g.g.g.g.g.g.g.g.g.g.g.g.g.g.g.g.g.g.g.g.g.g.g.g.g.g.g.g.g.",
"g.g.g.g.g.g.g.g.g.g.g.g.g.g.g.g.g.g.g.g.g.g.g.g.g.g.g.g.g.g.g.g.g.g.g.g.g.g.g.g.g.g.g.g.g.g.g.g.g.g.g.g.g.g.g.g.g.g.g.",
"g.g.g.g.g.g.g.g.g.g.g.g.g.g.g.g.g.g.g.g.g.g.g.g.g.g.g.g.g.g.g.g.g.g.g.g.g.g.g.g.g.g.g.g.g.g.g.g.g.g.g.g.g.g.g.g.g.g.g.",
"g.g.g.g.g.g.g.g.g.g.g.g.g.g.g.g.g.g.g.g.g.g.g.g.g.g.g.g.g.g.g.g.g.g.g.g.g.g.g.g.g.g.g.g.g.g.g.g.g.g.g.g.g.g.g.g.g.g.g.",
"g.g.g.g.g.g.g.g.g.g.g.g.g.g.g.g.g.g.g.g.g.g.g.g.g.g.g.g.g.g.g.g.g.g.g.g.g.g.g.g.g.g.g.g.g.g.g.g.g.g.g.g.g.g.g.g.g.g.g.",
"g.g.g.g.g.g.g.g.g.g.g.g.g.g.g.g.g.g.g.g.g.g.g.g.g.g.g.g.g.g.g.g.g.g.g.g.g.g.g.g.g.g.g.g.g.g.g.g.g.g.g.g.g.g.g.g.g.g.g.",
"g.g.g.g.g.g.g.g.g.g.g.g.g.g.g.g.g.g.g.g.g.g.g.g.g.g.g.g.g.g.g.g.g.g.g.g.g.g.g.g.g.g.g.g.g.g.g.g.g.g.g.g.g.g.g.g.g.g.g.",
"g.g.g.g.g.g.g.g.g.g.g.g.g.g.g.g.g.g.g.g.g.g.g.g.g.g.g.g.g.g.g.g.g.g.g.g.g.g.g.g.g.g.g.g.g.g.g.g.g.g.g.g.g.g.g.g.g.g.g.",
"g.g.g.g.g.g.g.g.g.g.g.g.g.g.g.g.g.g.g.g.g.g.g.g.g.g.g.g.g.g.g.g.g.g.g.g.g.g.g.g.g.g.g.g.g.g.g.g.g.g.g.g.g.g.g.g.g.g.g.",
"g.g.g.g.g.g.g.g.g.g.g.g.g.g.g.g.g.g.g.g.g.g.g.g.g.g.g.g.g.g.g.g.g.g.g.g.g.g.g.g.g.g.g.g.g.g.g.g.g.g.g.g.g.g.g.g.g.g.g.",
"g.g.g.g.g.g.g.g.g.g.g.g.g.g.g.g.g.g.g.g.g.g.g.g./ ~ N m Q B m B ~ ~ g.g.g.g.g.g.g.g.g.g.g.g.g.g.g.g.g.g.g.g.g.g.g.g.g.",
"g.g.g.g.g.g.g.g.g.g.g.g.g.g.g.g.g.g.g.g.g.! Q V k h h h h h p h h h V A ! g.g.g.g.g.g.g.g.g.g.g.g.g.g.g.g.g.g.g.g.g.g.",
"g.g.g.g.g.g.g.g.g.g.g.g.g.g.g.g.g.g.g. .C h p p h h h h h h p p h p h p h V ! g.g.g.g.g.g.g.g.g.g.g.g.g.g.g.g.g.g.g.g.",
"g.g.g.g.g.g.g.g.g.g.g.g.g.g.g.g.g.g.C k p h h h h h h g i i g h h h h p h k ....g.g.g.g.g.g.g.g.g.g.g.g.g.g.g.g.g.g.g.",
"g.g.g.g.g.g.g.g.g.g.g.g.g.g.g.g.g.C h h h p h g y % X X X . $ $ % a g h k O.6.<.O.O.g.g.g.g.g.g.g.g.g.g.g.g.g.g.g.g.g.",
"g.g.g.g.g.g.g.g.g.g.g.g.g.g.g.g.V h p h h g y $ + X X X o o o X X . $ % ` 7.7.6.6.O./ g.g.g.g.g.g.g.g.g.g.g.g.g.g.g.g.",
"g.g.g.g.g.g.g.g.g.g.g.g.g.g.g.m h h h h r X X X q q q e e e e e q q o $ 3 ) 6.7.7.6.O.o.g.g.g.g.g.g.g.g.g.g.g.g.g.g.g.",
"g.g.g.g.g.g.g.g.g.g.g.g.g.g.A g h h g e . o o q q q a ;.q.9.5.b q q q q o $ J >.7.7.6.^ g.g.g.g.g.g.g.g.g.g.g.g.g.g.g.",
"g.g.g.g.g.g.g.g.g.g.g.g.g.~ h h h h % X o q q q q o l i.f.f.d.P o % q q o o X S >.6.O.Q ~ g.g.g.g.g.g.g.g.g.g.g.g.g.g.",
"g.g.g.g.g.g.g.g.g.g.g.g...k h h h t X o q q o q t H *.s.f.f.d.3._ x q q o q e X J o.! :.=...g.g.g.g.g.g.g.g.g.g.g.g.g.",
"g.g.g.g.g.g.g.g.g.g.g.g.C p h h y X q q o q q l &.p.f.f.f.f.f.f.d.u.;.v q q q q X x -.7.-.Q g.g.g.g.g.g.g.g.g.g.g.g.g.",
"g.g.g.g.g.g.g.g.g.g.g.! k h h h % o q q q q a 5.d.f.f.f.f.f.f.f.f.f.d.u.H o o o o 2 *.:.Q h C g.g.g.g.g.g.g.g.g.g.g.g.",
"g.g.g.g.g.g.g.g.g.g.g.Q h p p t o o q q q q ' d.f.f.d.a.t.t.p.f.f.f.f.u.G o q o o o c I p h V g.g.g.g.g.g.g.g.g.g.g.g.",
"g.g.g.g.g.g.g.g.g.g.g.k h p i % o o q q q e 9.f.f.d.0.J 5 5 c ) 8.s.d.#.% q q q o q o i h h k ..g.g.g.g.g.g.g.g.g.g.g.",
"g.g.g.g.g.g.g.g.g.g. .k h h i o q q q q o a u.f.f.d.( o q o o o 2 ( 1.d q q o q q q q t h h h ! g.g.g.g.g.g.g.g.g.g.g.",
"g.g.g.g.g.g.g.g.g.g.~ h h h t o q o q q q d t.f.f.d.%.t q q q q o o * % o q q q q q q e h h h A g.g.g.g.g.g.g.g.g.g.g.",
"g.g.g.g.g.g.g.g.g.g.A h h h e q q q q q q e w.f.f.f.a.>.T f % q q e o q q q q q q q o e g h h V g.g.g.g.g.g.g.g.g.g.g.",
"g.g.g.g.g.g.g.g.g.g.k h h h e q o q q o q q } d.d.f.f.f.s.u.4.{ l e q q q q o q q q q q i h h k g.g.g.g.g.g.g.g.g.g.g.",
"g.g.g.g.g.g.g.g.g.g.h h p p q o q q q o q o d 4.d.f.f.f.f.f.f.f.p.;.l q q q q q q q o q p p p k g.g.g.g.g.g.g.g.g.g.g.",
"g.g.g.g.g.g.g.g.g.g.k h p p w q q q q q q q o 4 $.t.d.f.f.f.f.f.f.d.q.l o q q q q q o w i h h h g.g.g.g.g.g.g.g.g.g.g.",
"g.g.g.g.g.g.g.g.g.g.k h p h w q q o q q q q q q % c [ 1.t.d.f.f.f.f.f.2.q q q q q q q q i h p k g.g.g.g.g.g.g.g.g.g.g.",
"g.g.g.g.g.g.g.g.g.g.B p h p q q q q q q q q o q o o o % 4 Y 1.a.d.f.f.i.l o q q q q q q i p p k g.g.g.g.g.g.g.g.g.g.g.",
"g.g.g.g.g.g.g.g.g.g.j h h g r q o q q q q o q t e o o o q o * [ s.f.f.d.H o q q q q q w p p p j g.g.g.g.g.g.g.g.g.g.g.",
"g.g.g.g.g.g.g.g.g.g.b h h h u q q q q q q q t %.| a q o q q o v p.f.f.s.H o o q q q q u p p p n g.g.g.g.g.g.g.g.g.g.g.",
"g.g.g.g.g.g.g.g.g.g.K g p h h e q q q q q q T a.d.q.' x a t d ;.d.f.f.u.a o o q o o q i h h h x g.g.g.g.g.g.g.g.g.g.g.",
"g.g.g.g.g.g.g.g.g.g.J s h h h y q q q q q t 9.f.f.f.f.i.e.w.u.d.f.f.f.&.o q q q q q w p h h g z g.g.g.g.g.g.g.g.g.g.g.",
"g.g.g.g.g.g.g.g.g.g.g.d p p V ..x q q o o d w.f.f.f.f.f.f.f.f.f.f.f.r.c o q q q q q i h h k a F g.g.g.g.g.g.g.g.g.g.g.",
"g.g.g.g.g.g.g.g.g.g.g.3 i V @.7.+.t q q q o 8 $.i.d.f.f.f.f.f.f.d.0.J o q q q o q r h h h i 2 g.g.g.g.g.g.g.g.g.g.g.g.",
"g.g.g.g.g.g.g.g.g.g.g.g.*  .7.7.7.W q o q o o % 4 ( 2.s.f.f.f.4.Y 2 o o q q q o w p h h h y 0 g.g.g.g.g.g.g.g.g.g.g.g.",
"g.g.g.g.g.g.g.g.g.g.g.g.: n <.7.7.>.R e q q q e o X z i.f.f.s.U o o e q q q q w i h p k u 1 g.g.g.g.g.g.g.g.g.g.g.g.g.",
"g.g.g.g.g.g.g.g.g.g.g.g.F & R 6.7.7.<.T e o q q q q a 2.w.w.9.b o q q q o q r h p p h h * , g.g.g.g.g.g.g.g.g.g.g.g.g.",
"g.g.g.g.g.g.g.g.g.g.g.g.g.7 & ^ 6.6.7.o.M d q q q o % * 2 2 * % q q q q e r p h h h i t # g.g.g.g.g.g.g.g.g.g.g.g.g.g.",
"g.g.g.g.g.g.g.g.g.g.g.g.g.g.- % o.<.X.! ,.:.I q o o o o o o o o q q q r i h h h p h % # g.g.g.g.g.g.g.g.g.g.g.g.g.g.g.",
"g.g.g.g.g.g.g.g.g.g.g.g.g.g.g.O & B ! =.7.=.B i i r w q w q q w r u p p h h h h h e O g.g.g.g.g.g.g.g.g.g.g.g.g.g.g.g.",
"g.g.g.g.g.g.g.g.g.g.g.g.g.g.g.g.O $ M -.=.A h p h p i p i p i p h h h h h h h g $ O g.g.g.g.g.g.g.g.g.g.g.g.g.g.g.g.g.",
"g.g.g.g.g.g.g.g.g.g.g.g.g.g.g.g.g.- + * j h h p h h p h h h h h k i h h h h t + - g.g.g.g.g.g.g.g.g.g.g.g.g.g.g.g.g.g.",
"g.g.g.g.g.g.g.g.g.g.g.g.g.g.g.g.g.g.> O . % y h h h p h h h h h h h h i t + O < g.g.g.g.g.g.g.g.g.g.g.g.g.g.g.g.g.g.g.",
"g.g.g.g.g.g.g.g.g.g.g.g.g.g.g.g.g.g.g.g.< @   $ * y i i i i g y y t $ + O ; 9 g.g.g.g.g.g.g.g.g.g.g.g.g.g.g.g.g.g.g.g.",
"g.g.g.g.g.g.g.g.g.g.g.g.g.g.g.g.g.g.g.g.g.D 6 @ O     + + . + O O O @ @ g.g.g.g.g.g.g.g.g.g.g.g.g.g.g.g.g.g.g.g.g.g.g.",
"g.g.g.g.g.g.g.g.g.g.g.g.g.g.g.g.g.g.g.g.g.g.g.g.g.0 < # @ @ @ < 6 g.g.g.g.g.g.g.g.g.g.g.g.g.g.g.g.g.g.g.g.g.g.g.g.g.g.",
"g.g.g.g.g.g.g.g.g.g.g.g.g.g.g.g.g.g.g.g.g.g.g.g.g.g.g.g.g.g.g.g.g.g.g.g.g.g.g.g.g.g.g.g.g.g.g.g.g.g.g.g.g.g.g.g.g.g.g.",
"g.g.g.g.g.g.g.g.g.g.g.g.g.g.g.g.g.g.g.g.g.g.g.g.g.g.g.g.g.g.g.g.g.g.g.g.g.g.g.g.g.g.g.g.g.g.g.g.g.g.g.g.g.g.g.g.g.g.g.",
"g.g.g.g.g.g.g.g.g.g.g.g.g.g.g.g.g.g.g.g.g.g.g.g.g.g.g.g.g.g.g.g.g.g.g.g.g.g.g.g.g.g.g.g.g.g.g.g.g.g.g.g.g.g.g.g.g.g.g.",
"g.g.g.g.g.g.g.g.g.g.g.g.g.g.g.g.g.g.g.g.g.g.g.g.g.g.g.g.g.g.g.g.g.g.g.g.g.g.g.g.g.g.g.g.g.g.g.g.g.g.g.g.g.g.g.g.g.g.g.",
"g.g.g.g.g.g.g.g.g.g.g.g.g.g.g.g.g.g.g.g.g.g.g.g.g.g.g.g.g.g.g.g.g.g.g.g.g.g.g.g.g.g.g.g.g.g.g.g.g.g.g.g.g.g.g.g.g.g.g.",
"g.g.g.g.g.g.g.g.g.g.g.g.g.g.g.g.g.g.g.g.g.g.g.g.g.g.g.g.g.g.g.g.g.g.g.g.g.g.g.g.g.g.g.g.g.g.g.g.g.g.g.g.g.g.g.g.g.g.g.",
"g.g.g.g.g.g.g.g.g.g.g.g.g.g.g.g.g.g.g.g.g.g.g.g.g.g.g.g.g.g.g.g.g.g.g.g.g.g.g.g.g.g.g.g.g.g.g.g.g.g.g.g.g.g.g.g.g.g.g.",
"g.g.g.g.g.g.g.g.g.g.g.g.g.g.g.g.g.g.g.g.g.g.g.g.g.g.g.g.g.g.g.g.g.g.g.g.g.g.g.g.g.g.g.g.g.g.g.g.g.g.g.g.g.g.g.g.g.g.g.",
"g.g.g.g.g.g.g.g.g.g.g.g.g.g.g.g.g.g.g.g.g.g.g.g.g.g.g.g.g.g.g.g.g.g.g.g.g.g.g.g.g.g.g.g.g.g.g.g.g.g.g.g.g.g.g.g.g.g.g.",
"g.g.g.g.g.g.g.g.g.g.g.g.g.g.g.g.g.g.g.g.g.g.g.g.g.g.g.g.g.g.g.g.g.g.g.g.g.g.g.g.g.g.g.g.g.g.g.g.g.g.g.g.g.g.g.g.g.g.g."
};
