/* XPM */
static char *dragon[] = {
/* columns rows colors chars-per-pixel */
"50 50 222 2 ",
"   c #0B0909",
".  c #140909",
"X  c #1C0A0A",
"o  c #1F100D",
"O  c #1B1816",
"+  c #230B0B",
"@  c #2D0B0B",
"#  c #340B0B",
"$  c #3C0B0A",
"%  c #3B120E",
"&  c #2C1412",
"*  c #261917",
"=  c #381615",
"-  c #36241A",
";  c #292523",
":  c #372A29",
">  c #2C3A3B",
",  c #373533",
"<  c #430C0B",
"1  c #4C0C0C",
"2  c #530C0C",
"3  c #5C0C0C",
"4  c #481817",
"5  c #511010",
"6  c #561715",
"7  c #5C1B1A",
"8  c #640D0D",
"9  c #6B0D0D",
"0  c #730E0E",
"q  c #7C0E0E",
"w  c #671A17",
"e  c #761717",
"r  c #46271D",
"t  c #562A1B",
"y  c #64231C",
"u  c #7A211A",
"i  c #482624",
"p  c #592623",
"a  c #493726",
"s  c #533723",
"d  c #473434",
"f  c #5A3838",
"g  c #682823",
"h  c #7C2322",
"j  c #7A2A24",
"k  c #67332B",
"l  c #7B342C",
"z  c #663533",
"x  c #793937",
"c  c #5D432A",
"v  c #5F4436",
"b  c #62462B",
"n  c #69492D",
"m  c #76482C",
"M  c #674933",
"N  c #6F5133",
"B  c #765434",
"V  c #7E5C3B",
"C  c #4B4644",
"Z  c #544E4B",
"A  c #5B5958",
"S  c #70564C",
"D  c #7A5749",
"F  c #685A58",
"G  c #6D635B",
"H  c #676565",
"J  c #766A66",
"K  c #7A716A",
"L  c #7D7877",
"P  c #830E0E",
"I  c #8C0F0F",
"U  c #920F0F",
"Y  c #8C100F",
"T  c #8D1111",
"R  c #841818",
"E  c #951010",
"W  c #9B1C1C",
"Q  c #A51E1E",
"!  c #90251B",
"~  c #A6261B",
"^  c #B1291E",
"/  c #8C2423",
"(  c #852825",
")  c #952625",
"_  c #9D2929",
"`  c #85342C",
"'  c #99322B",
"]  c #8A3934",
"[  c #AA2424",
"{  c #A42929",
"}  c #AC2B2B",
"|  c #B42B2B",
" . c #B72C2C",
".. c #AE342D",
"X. c #B93326",
"o. c #B92F30",
"O. c #A73734",
"+. c #B63733",
"@. c #BC3031",
"#. c #C03827",
"$. c #C43334",
"%. c #C43A34",
"&. c #C83837",
"*. c #CB3C39",
"=. c #864939",
"-. c #9A4439",
";. c #855A36",
":. c #925B3C",
">. c #A6473C",
",. c #B5473B",
"<. c #87613B",
"1. c #8C6139",
"2. c #CD423C",
"3. c #C5483A",
"4. c #D2453E",
"5. c #D0493F",
"6. c #8C524A",
"7. c #BA4C41",
"8. c #8C6642",
"9. c #956C45",
"0. c #986E56",
"q. c #A77646",
"w. c #B2645B",
"e. c #A77B50",
"r. c #87776B",
"t. c #847A74",
"y. c #897C74",
"u. c #857E7B",
"i. c #AD7B77",
"p. c #C94D42",
"a. c #D54A42",
"s. c #C65345",
"d. c #D75548",
"f. c #D45E50",
"g. c #E35A4C",
"h. c #E96758",
"j. c #DB7568",
"k. c #AC8055",
"l. c #B48353",
"z. c #B98451",
"x. c #BB8959",
"c. c #9F866F",
"v. c #89817A",
"b. c #8B827C",
"n. c #97897B",
"m. c #B48D68",
"M. c #C28E5A",
"N. c #C5915E",
"B. c #CB9662",
"V. c #CE9964",
"C. c #D09A67",
"Z. c #D29D6A",
"A. c #D5A16D",
"S. c #D8A36F",
"D. c #DAA571",
"F. c #DEAB78",
"G. c #E1AD7A",
"H. c #E5B17E",
"J. c #8A8483",
"K. c #8A8584",
"L. c #8D898A",
"P. c #958B86",
"I. c #9C9289",
"U. c #9A9392",
"Y. c #A7968B",
"T. c #A49A97",
"R. c #AB9996",
"E. c #B19E9A",
"W. c #B3A28F",
"Q. c #ABA19A",
"!. c #B3A399",
"~. c #ADA4A5",
"^. c #B2A5A4",
"/. c #B5AAA5",
"(. c #B7A8A6",
"). c #B5ABAC",
"_. c #B9ADAD",
"`. c #BAB0AC",
"'. c #B6AFB1",
"]. c #BAAFB1",
"[. c #B6B0B1",
"{. c #BCB3B4",
"}. c #BDB8B7",
"|. c #BEB7B9",
" X c #BFB9BA",
".X c #D59791",
"XX c #CEB193",
"oX c #E5B383",
"OX c #E8B889",
"+X c #EBBE93",
"@X c #C0ADAA",
"#X c #C3B5AC",
"$X c #C5B9AD",
"%X c #C8B9AC",
"&X c #C2B5B5",
"*X c #C4BAB4",
"=X c #CABEB2",
"-X c #C1B7B9",
";X c #C3BBBC",
":X c #C9BEBD",
">X c #EDC196",
",X c #CCC1B6",
"<X c #C6C1BF",
"1X c #CDC3B9",
"2X c #D0C6BB",
"3X c #D2C8BB",
"4X c #F0C8A1",
"5X c #C5BEC1",
"6X c #C9BFC1",
"7X c #C6C1C2",
"8X c #CAC4C5",
"9X c #CEC8C5",
"0X c #CDC6C8",
"qX c #CFC9CA",
"wX c #D2C9C4",
"eX c #D2CCCC",
"rX c #D6D0CD",
"tX c #D9D3CF",
"yX c #DBD6D6",
"uX c #E1DDDD",
"iX c #E0DFE0",
"pX c #E3E2E2",
/* pixels */
"@X,XwXwX2X!.2XtXtXtXwX&XY.=X%X3X2X%X*X1X1X$X,X,X/.W.}.,X`.,XeXrXeXyXyXuXuXpXiXiXyXyXyXpXpXyXuX6X6XE.",
"%XeX6X;X8X;X-XeX6X;X-X_.!.eX:X<XqX<XtXrXqXqX9X7XT.,XrXqX<X<X<X<X5X6X-X6X6X6X6X5X5X].&X6X6X-X5X5X&XP.",
",X8X{.~.-X;X5X{.).&X X).R.tX;X}.<X}.}.;X X7X[.}.U.1XeX7X5X{././.]._.).-X5X].].].5X].E.6X5X5X5X5X5XJ.",
"3X8X^.T.7X-X;X;X;X{.{.~.U.rX[.{.[.;X}.8X<X}.).}.L.2XeX7X5X).-X*X-X].{.-X'.5X5X5X(.^.R.].5X5XR.5X5XK.",
"#X].).).;X;X;X-X-X-X[.).Q.yX}. X<X7X8X<X}.~.<X;XL.1XeX5X>.,  X X5X5X|.|.&X&X*X!.^.5X|.5X5X5X5X].{.u.",
"@X-X|.|.;X{.].]._.{.].^.Q.rX7X<X<X<X7X7X`.;X<X;XL.1XeX7.4 L 5X X X|.'.{.{.~.R.!.].-X5X'.5X5X5X5X5XA ",
"%X:X|.-X].|.;X^.{.7X_.U.T.<X X;X X<X7X}.;X*X;X;XL.6.>.p ' {.).~.-X5X'.{.;X~.`.`.5X5X-X6.=.: & 4 2 1 ",
"=X-X{.5X].|.;X-X;X[.{.Q.U.<X[.<X7X7X}.[.}.}.;X;Xp d.6 P x |.R._.-X'.'.-XA i.* 6 h *.x p @ 9 E E U i ",
"=X0X-X).].|.|.6X5X|.~.T.U.rX). X;X<X{.{.`.{.0.f.W < T E x }.)._., G 6.3.~ u u % < < T T E E E 9 F L.",
"2X0X].).).~.].].].].Y.I.P.$X/. X;X[.L a -.d...w < E q 3 < , w.-.,...X.! @ 1 q P E E U E E E q 7X5XU.",
"=X0X;X-X-X&X-X-X-X6X&XY.P.$X!.`.<X}.* 3.^ e 2 8 E E 7 d.3.! 2.X.{ u % 3 Y E E E E E E E E R 5X X-XL.",
"3XeX-X-X^.{.6X).5X].&X~.I.2X!.}.{.r.y ~ < # 8 E E E j #.~ u % # + . 9 E E E E E E E U U T z T.U.U.L ",
"3XeX|.;X|.).'.].].-X-XS c.0X}.XXS D #.0   2 E E E E ! X.w       @ 9 U E E E E E E E E E 9 Q.Q.I.T.P.",
"=XeX;X;X]._.|. X5X5X'.z f eX.Xc.}.l ~ .   9 E E E T u X.w + 2 q q U E E E E E E E E E U F qXeX9X6XU.",
"=X0X X].].;X X{.f + -.*.p.O.b D [.4 ^ =   % E E E E s #.2 Y Y U E E E E E E E E E E E e *X*X/.[.@Xr.",
"=XeX5X|.-X-XK.: 7 l ` ; 4 @.o.g / 6 r &     Y E E E 3.6 X 3 q q U U E E E E E E E E U z <X<X<X<X5Xt.",
"1X0X{.{.[.F ] h O.$.7 > ` @.} ' y w a.O.] g 6 T E w ' . X + + + 1 < 2 q q T U E E E E -X<X1X7X<X7XK.",
",X0X{.{.;Xs.p.$.$.$.p.7.q 6 { ..w = R @.$.$.4.` 8 3.w Y P P P I U q # # . . . 2 q 0 0 = [.;X8X8X<XK.",
"2X:X{._.,.+.%.[ [ 2 6.w.p @.7 g.a.( . h @.%.$.2.d.& o 8 U U U U E E E E T U T T I U P G -X-X;X8X7XK.",
"3X8X[.J / 1 6 < p * G .Xz $.( Q R 7 q.8.g / $.$.%.2.-.+ X q E E E E E E E E E E U 5 K ;X_.$X;X7X*Xb.",
"1XeX X;X; : -Xp , i % i O.$.e r b s x.D.Z.;.j o.$.$.&.a.=   < U U E E E E E E E w ].#X(./.).*X*X;XJ.",
"#X{.-X|.5X5X;X;XJ.P.S ' { q @ V V.D.G.F.D.D.q.r { $.$.$.5.&     < P E E E E E q -X{.;X}.&X&X{.=X<Xv.",
"#X0X-X;X;X;X XC - s.*.@.e , O 4 V D.F.G.D.D.1.8.N _ $.$.%.g.1 @ X X + U E E E 6  X X}.*X;X}.`.`.!.t.",
"%X-X).|.[.[.E.>...T e 5 U.rX-X, w N D.D.M.<.c V.C.m ( #.&.5.5.w I T q 9 1 T 0 &X_._.[.;X}.).{.{.T.r.",
"Y.u.L u.v.v.n.R i b.u.y.n.R.J.L f h s n a k.Z.oXD.A.q.( ..4.2.+.8 E E E I 1 d y.K t.r.v.v.L L L J r.",
"XX3X,X,X9XtXuX- iXtXwX=X1X2X1X=XH / u e.V.F.OXoXD.B.l.a 6 2.&.4.7.R E E E P 2X:X1X1XwX1X,X,X$X*X,XW.",
"9XyXqX9X0X0XeX8X6X0X5X5X9XeX8X8Xz ) X.r x.A.A.A.N.q.c 9.:.3.&.&.a.p.8 T E E eX6X&X0XqX|.;X0X0X0X9XU.",
"1XeXF = J 5X5X].-X6X-X6X;X6X6X: { | [ { r q.q.q.V - l.S.B.r g.*.*.$.>.- q E eX6X`.8X;X;X;X7X5X5X XL.",
"*XeX&  .f {.]._.-X5X&X6X0XL.) } [ { } 4.7 6.k.k.k.oXH.G.C.q.] a.a.h.p.h.6.5 4 5X[.`.7X5X7X7X7X X~.J.",
":X0X% @.;X;X;X_.-X6X5X-X|.4 } g x ` &.*.[ 9.A.F.+XOXD.A.l.c s 5.$.d.j @.g.k = 7X{._.8X7X5X8X5X}.{.L ",
"=X0Xi } w.6X6X8X6X;X-X6XC  .g w.h.p.g.&.[ m M.V.V.B.M.9.B 1.e.` $.a.7.R $.s.w 5 Z {.;X;X7X9XqX8X{.u.",
":XeX4 [ 7.;X5X6X:X/.-X&X& Q j.h.a.$.$.g.$.1 b 1.<.<.b <.A.D.C.s $.$.7.$ @.a.l 8 8 8X8X7X8X8X;X8X XL.",
"$X8X= T 2.i.-X;X/.R.R.E.w ( h.a.$.$.*.$.$.p C.N.M.M.C.D.G.D.D.1.+.$.3.$  .$.O.1 q 4 5X7X7X7X7X X|.L.",
"%X=X;Xq $ w A  X].^.R.{.) = p.$.$.R $.$.~ ` D.H.oX>X>X>X>XH.D.M.` $...$  .o.a.5 q d 8X7X7X7X X7X7XL.",
"2X-X5X5 6 ( z 7X{.^./.;Xe l $.$.$.e $.$.T B G.OX>X4X>XOXoXG.D.A.M {  .$  .$.h 2 0 5X8X-X}. X5X X XK.",
"=X0X-Xi q | ' z -X_.:XX h g.$.$.Q R $. .0 9.D.G.H.oXG.G.D.D.A.z.N h / $  .%.y 3 p 6X5X;X{.7X).5X7XK.",
"$X{.Q.~.1 Y 8 _ 3.& ' _ & p.$.$.W ( $.Q @ B x.Z.D.D.S.D.D.B.M.1.O % y $  . .5 2 7X7X7X X5X X{.~./.J.",
"W._./.R./.3 5 [ $.h O./ l h } @.6 [ $.W ;.9.n q.q.z.l.z.e.q.1.N x.7 w #  . .5 d 0X0X0X7X7X5X X)./.J.",
"*XrX8X*XtXi 8 E E Q / ` a.$. .[ % Q &.W 1.A.x.q.q.b c b b m e.Z.N.t + 9 $. .@ 0X7X7X5X8X5X).5X5X*XJ.",
"2X8X*X X:X}.d 8 T 9 j a. . ./ = + e $.W b A.G.oXF.Z.Z.Z.C.S.D.Z.N & + Y $.| p 6X7X7X{.7X7X5X5X0X8XL.",
",X7X{. X}.<X[.; $ g $. .{ e X 1 < 3 _ 0 - V Z.oX>X>X>XoXF.A.N.N D , # U / ) h Z |. X{.}.5X X7X5X7XL.",
"2XeX X;X;X<X[.[.g 6.g Q + < 8 3 3 + q 8 ;.b V l.B.S.S.S.N.c O 9.a 5X# 4 6 w 7 < , 5X5X[.}.{.7X7X;XJ.",
",XqX<X;X;X-Xz p.$.$.a.4 < 1 $ 8 1 #   # o x.l.N b <.a M l.l.A.x.* ].- 7 [ | | 6 < : {.0X5X5X7X5X[.J.",
"2X8X;X X;X;Xg ) { @.+.. < 2 P P P 0 < {.; V A.F.F.x.Z.A.Z.B.l.n ;X6XF 7 ) h _ h * K 0X0X7X7X0X7X Xb.",
",X-X{.A {.j 7 6.j e @   # 8 9 w 4 8 : ;X[.c B m.oXoXG.B.l.9.s Z 7X:X6 h X w 7 X w {.0X0X7X7X7X7X{.J.",
",X0X X_. X;X[.;XA & ;XZ X Z ; F G *  X{.[.}.Z v 8.9.V N a O 8X<X&X{.).*X  Q.:X: {.}.5X7X7X7X7X X{.b.",
"%X7X{.;X;X7X X7X  O  X|.Z H (. X{.{.Y.[.[.7X}.}.L.H H H <X[. X<X{.8X:XG U.Q.eX0X5X5X X7X7X;X}.5X[.b.",
"*X9X{.). X5X{.{. X7X7X~.{.'.;X;X;X[. X{.{. X}.}.L.,X8X<X8X7X;X8X;X5X5X X~.U.rX7X X).~. X5X X).{.;XK.",
"`.*X[.[.[.{./.~.{.{./.T.^.|.|. X|. X}.~.~.|.|.'.J.,X8X}.{.{./.{._.[.).L.P.I.~.}.~.Y.T._.[.).R./.[.J.",
"I.P.b.t.y.b.v.y.n.n.y.y.y.u.L L L J.L J H K L L K Y.P.L J t.t.P.b.n.r.r.r.c.n.v.c.y.r.P.n.P.v.n.n.y."
};
