/* XPM */
static char *dwarf[] = {
/* columns rows colors chars-per-pixel */
"50 51 231 2 ",
"   c #0C0B0B",
".  c #130D0B",
"X  c #1C0E0D",
"o  c #14110D",
"O  c #1C140D",
"+  c #1C180F",
"@  c #141314",
"#  c #1C1412",
"$  c #1D1815",
"%  c #1B191B",
"&  c #140F15",
"*  c #23130D",
"=  c #2B180E",
"-  c #311E0F",
";  c #241513",
":  c #231A15",
">  c #2B1C14",
",  c #241C1B",
"<  c #2B1D1B",
"1  c #291615",
"2  c #321B14",
"3  c #351D1C",
"4  c #3B1C1A",
"5  c #341719",
"6  c #1B201F",
"7  c #2B221B",
"8  c #2B2219",
"9  c #34231B",
"0  c #3B251C",
"q  c #3D2A1D",
"w  c #342316",
"e  c #3B331B",
"r  c #1E1E20",
"t  c #271E22",
"y  c #252224",
"u  c #2C2423",
"i  c #2C2B2D",
"p  c #292728",
"a  c #3B2322",
"s  c #362A27",
"d  c #3C342B",
"f  c #2E2C33",
"g  c #272C35",
"h  c #312D31",
"j  c #2E3535",
"k  c #343235",
"l  c #3B3534",
"z  c #353539",
"x  c #3B3A3D",
"c  c #39373B",
"v  c #43231C",
"b  c #432B1D",
"n  c #482A19",
"m  c #4A3618",
"M  c #583B1C",
"N  c #54380C",
"B  c #603B1F",
"V  c #452422",
"C  c #4A2523",
"Z  c #4C2A23",
"A  c #442C25",
"S  c #532B23",
"D  c #5A2F2A",
"F  c #552A24",
"G  c #443223",
"H  c #493729",
"J  c #5D312B",
"K  c #583A26",
"L  c #433B33",
"P  c #4C3D39",
"I  c #533C37",
"U  c #542F35",
"Y  c #652F2B",
"T  c #67322D",
"R  c #673834",
"E  c #773A36",
"W  c #72322F",
"Q  c #431E17",
"!  c #55441B",
"~  c #6A480C",
"^  c #754C0A",
"/  c #7B550C",
"(  c #795918",
")  c #604515",
"_  c #5A4A2C",
"`  c #4A4439",
"'  c #51443C",
"]  c #574838",
"[  c #555036",
"{  c #694426",
"}  c #6F5134",
"|  c #3C3D41",
" . c #343840",
".. c #413D46",
"X. c #3F4246",
"o. c #424244",
"O. c #44444A",
"+. c #4A484B",
"@. c #564745",
"#. c #585349",
"$. c #4C4B53",
"%. c #55545A",
"&. c #5B585B",
"*. c #4E4E52",
"=. c #685748",
"-. c #755748",
";. c #6B5953",
":. c #755F57",
">. c #694F49",
",. c #786748",
"<. c #6B6458",
"1. c #79665A",
"2. c #726A55",
"3. c #5B5A64",
"4. c #666569",
"5. c #786B65",
"6. c #7B7367",
"7. c #6A6B73",
"8. c #6E6E79",
"9. c #736E75",
"0. c #7B7574",
"q. c #7E7876",
"w. c #7D7B7B",
"e. c #757678",
"r. c #5F656B",
"t. c #92680C",
"y. c #8A6610",
"u. c #82584B",
"i. c #876E46",
"p. c #836759",
"a. c #927857",
"s. c #986651",
"d. c #876B65",
"f. c #87756B",
"g. c #847A74",
"h. c #8A7E75",
"j. c #847D7B",
"k. c #837773",
"l. c #977D73",
"z. c #95766A",
"x. c #7F817D",
"c. c #8B827C",
"v. c #8C8077",
"b. c #97877A",
"n. c #A38778",
"m. c #A88B75",
"M. c #7A7B84",
"N. c #797987",
"B. c #7E7E90",
"V. c #817E88",
"C. c #7E828E",
"Z. c #858183",
"A. c #8A8483",
"S. c #8F8886",
"D. c #8D8A8B",
"F. c #86858C",
"G. c #948B84",
"H. c #948B88",
"J. c #9C948E",
"K. c #9E9386",
"L. c #888A95",
"P. c #9B9393",
"I. c #999596",
"U. c #978F94",
"Y. c #A2948D",
"T. c #AA9B8A",
"R. c #A39A93",
"E. c #AB9996",
"W. c #A39C9B",
"Q. c #A99E9C",
"!. c #A39493",
"~. c #B19E9A",
"^. c #AE8F86",
"/. c #ABA29B",
"(. c #ABA097",
"). c #B1A19E",
"_. c #B4A596",
"`. c #B3A28F",
"'. c #A29BA3",
"]. c #ACA4A4",
"[. c #AFA8A9",
"{. c #B3A5A4",
"}. c #B4A9A5",
"|. c #B4ABAC",
" X c #B9ADAC",
".X c #B7A8A6",
"XX c #BBB3AE",
"oX c #B9B0A9",
"OX c #B6AEB1",
"+X c #BAAFB1",
"@X c #B6B0B1",
"#X c #BCB3B4",
"$X c #BEB7B9",
"%X c #BFB9BA",
"&X c #BFB8B7",
"*X c #9999A5",
"=X c #C2B19D",
"-X c #C3B5AC",
";X c #C5B9AD",
":X c #C8B8AB",
">X c #C2B4B4",
",X c #C4BAB4",
"<X c #CABEB2",
"1X c #C1B7B9",
"2X c #C3BBBC",
"3X c #C9BEBE",
"4X c #C0AEAD",
"5X c #CCC2B6",
"6X c #C6C0BF",
"7X c #CDC3BA",
"8X c #D0C6BB",
"9X c #D2C8BB",
"0X c #C5BEC1",
"qX c #C9BFC1",
"wX c #C6C1C2",
"eX c #CAC3C4",
"rX c #CDC6C8",
"tX c #CFC9CA",
"yX c #CEC8C6",
"uX c #D3CAC4",
"iX c #D2CCCC",
"pX c #D1C5C5",
"aX c #D6D1CE",
"sX c #D9D3CF",
"dX c #DAD4D2",
"fX c #DEDBDB",
"gX c #D9D3D3",
"hX c #E1DDDD",
"jX c #E0DFE0",
"kX c #E3E2E2",
"lX c None",
/* pixels */
"=X7XpXuX8X.X7XsXsXsXpX>XT.<X<X8X8X<X;X5X5X;X5X5X}.`.,X,XXX5XaXaXqXfXfXfXfXkXfXfXfXgXfXkXkXfXfXqXqX{.",
",XiXqX2XeX1X1XuXqX0X$X|.).iX2XwXyX6XgXiXiXtXyXwXW.5XaXyX6X6XwX6X0XqX0XqXqXqXqX0X0X+X4XqXqX0X0X0X>XV.",
"8XeX#X].$X2X3X&X|.>X1X|.E.aX2X&X6X#X&X6X%X6X@X&XI.5XiX0XqX#X}..X+X.X|.+X0X+X1X+X0X+X~.qXqX0X1X1XqXV.",
"8X3X{.W.qX$X2X2X2X>X#X].J.aX#XXX&X6X#XwX6X%X[.%XD.8XiXeX2X|.1X1X1X|.0X0X|.0X0X0X.X{.E.+X0XqX'.0X0XV.",
"-X+X|.OX2X2X2X1X1X2X+X|./.dX&X6X%XwXwX6X&X[.6X%XD.7XiX2X%X0X2X2X0X0X#X$X1X4X1X).{.0X1X0X0X0X0XOX4XV.",
"4X>X$X#X2X#X#XOX XXX+X]./.iX6X6X6X6XwXwXoX%X6X6XD.7XiX0X%X0X0X$X0X#XOX+X1X].E.).+X0X0X+X0X0X0X1XqXV.",
":X3X$X2XOX1X1X[.#X6X|.I.R.I.I.W.2X6XwX&X%X%X6X%XE.R.w.7.I.D.J.].2X0XOXOX1X[.|.+X0X0X0X0X0X1X0X$XqXV.",
",X1X#X2X#X&X2X!.'.U.U.U.*XL.L.2XwXwX&X@X&X&X6Xv.C.w.F.3.*XZ.e.v.1XOXOX>X0XqX0X0X+X0X0X0X$X$X0X0X3XV.",
"<XpX1X|.@X&X#X9.B.L.M.N.F.A.|.%X2X2X#X,XXX#X1Xh.&.r.C.&.F.9.r.&.m.eXeX{.OX#X%X0X{.+XwX0X0X0XwX2XqXV.",
"8XpX#X|. X].&X+.7.7.7.N.j.:X|.$X6XXX}.#X&X2X6Xi.} i.a.i.a.,.,.} i.%XwXwX2X0X%X%X>X%X0X2X0X|.0XeXqXU.",
"<XrX2X$X&XXX%XR.e.*.8.C.V.-X.XXX%X$X).}.6X2X2XN ~ y.t.t.t./ ^ / N 6XwX2X2XwXwX$X$X$X0X@XOX[.%X%X0XD.",
"9XiX$X1X[.&XR.6.*.r.3.8.M.j.~.$X$X$X.X2X2X&X2Xm m ( / ^ / ~ ) ) M ].].].'.].].].Q.'.].[.W.I.W.I.!.h.",
"9XiX$X1X(.G.=.6.q.e.7.%.3.C.V.&X@X&X,X2X1X6X6Xx u e ' ! ! d G e ;.XX;XXXXXXXXXXX#XXXXX}.(./.(.J.!.b.",
"<XtXW.'.0.#.6.w.C.M.8.` %.8.F.j.&X6X#X@XwX6X2.$.&.#.d.p.f.d.;.4.g.dXyXiXaXgXaXaX6XiXyXuXaXaXuXyXqXY.",
"<XtXZ.L.f.6.C.C.e.N.9.=.&.*.7.3.-.&X X,XwXwXl $.M.` @.;.;.#.L +.0.T.6X6X6X7XyX6X6X%X2X6X1X1X}.XX Xd.",
"<XiX0XV.D.<.9.x.e.M.5.].K.[ l d G K ,X1XwX] , &.4.j u s 9 8 + u &.#.m.6XyXwX6X6X&XwXyX,X6X6X6XwX,Xj.",
"5XrX1X#XF.D.<.0.N.e.2.W.J.yX&X0 n Z K $XH : # % h 8 + : ' s + 6 g 7 8 ;.6X6X>XqXqX1X1X1X6X6X6X7X6XA.",
"8XrX#X@X2XF.0.<.e.w.6.!.Y.uX X).q b G H 7 < # @ : 8 : : 7 7 : $ $ $ 7 8 ] -.s.3XqX3X#X,XoX6XwXwX6XA.",
"<XqX#XOXOX7.V.j.#.e.g.|.(.dX2X>X< w b H Z A E.l $ , # : $ : > > : 8 8 8 J } E -.1X3XyX1X2X1X1XwXwXS.",
"9XeX@X X#X$X1XN.x.<.,.|./.uX$X; ; 1 > 0 I n.1.f.s # $ : : : : $ y i h : V R W Y m.oX2X,X X>X2XyX,Xc.",
"7XiX1X2X0X2X$X2X8.M.2. XR.7XwX; 1 X X a 1.d.l.d.5.X # : : $ : , h k +.< 1 D T C a..X-X X{. X,X,X%XS.",
">X#X$X$X0X0X2X2X$X4.e.|./.aX%X2 , . a @.@.b.:.d.>.5.# # $ , $ : f %.%.x u 4 Y Q p.>X,X1X&X&X#X2X6Xc.",
":XeX1X2X%X2X&X@X@X%X2X[.(.gX=.2 4 4 P ..I P ;.p.1.L o # $ o y u |  .+...h 2 F v i.1X&X&X1X#XXXoX(.f.",
",X1X|.&X@X#XQ.U.[.@X|.].R.aXS Z D D U H P @.@.:.H w , # @ y h i | | ..$.y ; S V -. X#X1X#X X#XXXE.g.",
"T.j.0.j.j.v.b.b.h.b.c.g.K.Y.S J J T D 0 l l d : 3 b b s y f | ..$.X.%.z p . 4 v -.g.k.c.v.q.0.e.5.f.",
"=X9X5X5XuXsXhXgXhXgXuX<X8X7Xv C Z Y J q < # . @ : 9 b s t p c x O.z k h , X 3 9 -.7X9X7X5X5X;X5X5X_.",
"8XdXiXiXrXiXiXeXqXrX0X0XeXiX2 4 0 F D Z 4 X @ @ o + w 0 A , j j p a U E T T Y F :.pXtX$X6XrXtXrXyXI.",
"5XiX3X1XqX0X0XOX1X0X2X0X3X3X= 1 5 C J S V ; @ % @   : q 0 A : : L I U W W Y Y Z -.7X2X%X%XwXwX2X%XS.",
",XaXqX0X0X+X>X|.1X0X+XqXeX0XG 1 * 5 V C C ; % +.%.| z < 9 q b f.l.l.s.T R F J C -. XwX3XwXwXwX%X].c.",
"5XrX0X0X1X2X2X X2X3XqX1X1X>XeXK G ; O O O < l *.` ! ! m * 2 ^.p.m.V.d.>.R S Z v p. XeXwX2XrX0X%X#Xq.",
"<XrX1X0X0XqXqXqXqX2X1XqX2X+X@XeX&X* . o $ 9 l ' ( y.( ( M :.f.f.z.p.l.;.Z C 0 v &X$X3X2XwXeXrXeX&Xw.",
"<XiX0X0X%X1X0XeX3X.X>X>X#X1X1X#X1XX O : 9 w h ` { ^ ^ ~ m < f.f.d.d.5.I V V 3 K 0XwXwX0XeXeX0XeX%XD.",
";XeXrX>X>X1X1X%X|.E.E.~.>X1X.X+X X, u s q s l ` ) ^ ^ ~ m 8 s =.d.f.:.s C 4 b XX2XeX0XwXwXwXwX$X#XD.",
"<X,X1X].1X0X1X$X+X{.E.+X1X+X+X>X&Xu y u < u u +.#._ _ _ ' z   u ;.@.q V H ] dXwXwXwXeXwXwXwX%XwXwXD.",
"3X0X2X{.wX2X#X3X+X)..X2XqX+X{. X#Xz z | i h & r p u u p p 6 &   # O : H 9 ' gX2X2X0XeX$X#X%XwX%X2XA.",
"<XqXqXQ.wX2X0XwX1X#X3X3XqX1X.X4X,XX.c +.z | f j z 6 z i y g r @ @   o $ % d aXwX%XwXwX2X#XeX|.2XwXS.",
":X1X/.[.|.[.[.W.W.Q.].[.].].H.P.Q.X.| $.z O.i k | h z z i l y t y @ % @ y z uXwXwXwXwX%X0X%X@X[.].Z.",
"`.oX).(.oX/./.R././.R.(.Q.W.J.J.P.x *.+.z ..p h O...f | +.f c i f % r % g O.d.eXrXrXtXwXeXwX%X|.|.A.",
";XaXeX,XaXuXyX7X$XyXtXyXpXiXsXeXiXo.L *. ...z c O.z x x z X.x z z y f p j | ] eXwXwX0XeXwX[.2X2X$XS.",
"7XeX1X1X2X1X2X#X$X&X1X1X>X3X3X1Xp t i l z o.| x o.X.o.o.c O.| z c f k f g  .5.eXwXwX#XwXeX0XwXrXeXS.",
"5XeX#X$X$X6X&X1X1X&X{.].}.1XXX2X* : 1 < 2 3 a 3 a a u u s u t t , < X * X * aXwX$X%X$X#X2X%XwX0XeXD.",
"8XtX%X6X2X2X X@X1X$X X@X#X3X{ K v - 1 9 a C C C C C v v v v C V V 5 ; = 2 w dX#X$X2X2X@X%X$XwXwX2XA.",
"6XyXwX%X2X$X&X#XXX1X3X X).m M T { S = X X ; v 2XZ.<XtX$X>XqXwXb ; : - n K B { wX0X0X$XrX0X0XwX2X@Xj.",
"7XyX3X$X2X2X$X$X@X#X|.].1Xw n m K m -       +XOXj.,X3X|.|.2X6XH o + M B } { M { eX0XwXrXwXeXrXwX%Xc.",
"5X2X#X&X&X$X#X&X&X%X2X2X$X= : : > * O       8 d ] ` ` _ [ =.=.L . + n K M K n n %X#XeXrXwXwXwXwX&Xc.",
"5XeX1X|.$X2X@X3X2X6X2X$X6Xd 9 = = = > s d d H H H H L d d L L 7 o o * = - - - - $X%XwXwXwXwXwX%X#XA.",
"<X6X#X2X2X6X$X3X2X2X%X&X$X2X{.%X&X&X!.@XoX6X#X%XS.:XyX1XwX#X$X,.&Xw > 8 8 8 9 w %XwX%XwXeX$X$X0XoXA.",
";XeX#X X$X6X#X&X$X2X6X].#X@X6X2X2X@X1XXX&X%X$X&XD.5XwX3XwXwX3XeX%X6X6X%X].P.aXwX%X|.].%X6X$X|.$X%XS.",
"oX1X#X@X X&X].].#X#X|.!.|.&X$X$X$X$X@XQ.|.@X&XOXA.5XeX%X#X#X|.#X@XoX[.K.A.K.).&X}.R.!.@X@XoXE.2.&Xc.",
"Y.G.c.g.j.v.v.h.b.G.h.g.h.j.q.0.c.Z.w.5.5.9.0.0.6.T.H.g.5.q.k.G.c.b.v.6.f.b.n.v.v.v.f.b.b.G.c.b.G.f.",
"lXlXlXlXlXlXlXlXlXlXlXlXlXlXlXlXlXlXlXlXlXlXlXlXlXlXlXlXlXlXlXlXlXlXlXlXlXlXlXlXlXlXlXlXlXlXlXlXlXlX"
};
