/* XPM */
static char *exit_s[] = {
/* columns rows colors chars-per-pixel */
"60 60 125 2 ",
"   c #1F1402",
".  c #211602",
"X  c #241904",
"o  c #2B1E04",
"O  c #261D0C",
"+  c #291E08",
"@  c #2F2004",
"#  c #2D220C",
"$  c #322305",
"%  c #3E2703",
"&  c #35260A",
"*  c #37290D",
"=  c #3A2B0C",
"-  c #2E2412",
";  c #302610",
":  c #362B16",
">  c #3B2D13",
",  c #372D18",
"<  c #3A2F19",
"1  c #3D3016",
"2  c #3E321B",
"3  c #452F02",
"4  c #473103",
"5  c #4C3503",
"6  c #4E3804",
"7  c #4F390A",
"8  c #513B05",
"9  c #5A3E03",
"0  c #533D0A",
"q  c #433315",
"w  c #44361A",
"e  c #45381D",
"r  c #543E12",
"t  c #56400D",
"y  c #5B440E",
"u  c #574113",
"i  c #5C4513",
"p  c #5F4814",
"a  c #5C4618",
"s  c #634305",
"d  c #6F4904",
"f  c #724D03",
"g  c #7C4D02",
"h  c #775104",
"j  c #7B5503",
"k  c #7E5903",
"l  c #614B14",
"z  c #634D1B",
"x  c #6E5111",
"c  c #66501D",
"v  c #69531C",
"b  c #715413",
"n  c #825503",
"m  c #845C03",
"M  c #8B5D04",
"N  c #815B0C",
"B  c #8B5E09",
"V  c #915E02",
"C  c #835D11",
"Z  c #866104",
"A  c #8D6104",
"S  c #8C6309",
"D  c #926504",
"F  c #996504",
"G  c #966904",
"H  c #9A6D04",
"J  c #93650B",
"K  c #99650C",
"L  c #96690B",
"P  c #9A6D0B",
"I  c #9E7204",
"U  c #9E720B",
"Y  c #826114",
"T  c #8B6413",
"R  c #8E6913",
"E  c #8A6518",
"W  c #8E6919",
"Q  c #936513",
"!  c #956A12",
"~  c #9A6D12",
"^  c #92641A",
"/  c #946C19",
"(  c #9B6E18",
")  c #977114",
"_  c #9E7214",
"`  c #96711C",
"'  c #9D721A",
"]  c #9D781B",
"[  c #A16D05",
"{  c #A06E0B",
"}  c #A17505",
"|  c #A97204",
" . c #A57906",
".. c #A2750B",
"X. c #A8760C",
"o. c #A5790C",
"O. c #A97D0D",
"+. c #A06F19",
"@. c #A27514",
"#. c #A87610",
"$. c #A67A13",
"%. c #AA7D13",
"&. c #A2751A",
"*. c #A6791B",
"=. c #AA7D1B",
"-. c #B17D15",
";. c #B17E19",
":. c #A57720",
">. c #A67820",
",. c #AA7C21",
"<. c #AC800E",
"1. c #AD8114",
"2. c #AE821A",
"3. c #B18516",
"4. c #B48817",
"5. c #B2851B",
"6. c #B6891C",
"7. c #B98D1D",
"8. c #BD911E",
"9. c #AE8121",
"0. c #B28621",
"q. c #B98720",
"w. c #B68921",
"e. c #BA8D21",
"r. c #BD9121",
/* pixels */
"B =.q.q.=.5.;.-.o...X...X.F H H F F F H I I H F F D A D F F | | G F K K K { #.3.%.X.;.O. .H F F F F F F F K { { U U R u ",
"F ..%.%.5.5.;.5.2.2.1.O... .G F F F F H I I [ [ I F G I F F H } ....=.3.%.%.%...X.3.6.3...} } D J D D H } I } } I I b 1 ",
"F I H U =.0.,.*.5.0.=.o...H D G D G D D H H I G G D G G G G H @.] ] 2.2.6.$.P P ..3.6.=...U U H F A G H G I F G G k l w ",
"F } I o.=.5.2.%.<.2.2.o...} } I I I G I I G H I I I I I H H ..O.5.5.0.5.6.3...U 3.e.5.5.1.o.O.I G H H I I I I G G Z y > ",
"F } U ..1.5.5.%.%.2.$.U U U  .I I I I I I H I I I G F I G H } O.3.7.e.0.5.5.2.1.3.5.3.=.O.O.O.U I I I I I I I G G k y > ",
"H I H } o.<.1.5.0.2.o.$...I  .I H I I I G I } I I D I I H H I I <.<.3.2.2.2.6.5.5.7.3.%...O.1.O...U H H G I G G G k y 2 ",
"[ } U o.O.....@.2.e.$.1...I } I H H I I G I I I G A G H I H I I I U <.<.U <.1.0.e.r.7.=...o.<.O.} } H H I H G G G Z y 2 ",
"} I U o.$...U ..2.6.%.$.O.O. .} I H G I I D Z D D A A A F I } I I H U o.<.$.2.6.7.r.e.7.1.=.O.o. .U I H G H I I I k y 2 ",
"[ [ U $.@.U U ..2.5.=.2.1.O.O. .} H G H G M M Z D H A D A H } I I D H o.1.5.e.6.6.e.r.8.3.1.<.O. ...I U I I H I G k y 2 ",
"......O.o...@.%.5.6.6.6.4.5.<.o. .I I H H D M A G I H G D D D F D G U o.1.4.4.3.6.6.9.2.O. . .O.O.I U o. .I H G A Z y 2 ",
"H .._ o.1.1.2.4.7.4.e.7.r.8.1. .} I } I I H D G I H I M A D D A D H I I <.1.4.2.6.2.9._ U I }  .O. . ... .I I G A Z y 2 ",
"....U U 5.5.1.2.4.2.1.2.6.6.4.$...} } I } I G I I A G G D H D I G G I <.o.<.4.4.6.2.2.U U I } O.<.O. .<.o.I H H G Z y 1 ",
"| ..P ..5.5.1.$.3.1.1.2.=.0.1.O.....} I I I I I G F G G I } H I I H I  .o.o.4.7.e.5.6.o.I I H }  .o.o.O. .I I I H Z l > ",
"X.} H O.1.7.6.2.5.4.6.0.,.5._ U U } I I I I I I I } } D G I H H H I I I ..<.7.0.4.=.2.U I I I ..U U O...O.o.H D G Z y > ",
"X...H %.5.e.6.1.2.7.w.6.w.%.P H } I I I I I I G H I I G H I I H H H I  . .<.6.6.4.1.1.P H I I ..I  .O.<.o.U I G G Z l 2 ",
"X...U 1.7.7.5.1.$.5.7.4.7.$.....H I I I I D D A G I H G H I I G H H I ..o.2.4.4.2.4.2._ ..I I ..O.<.<.1.<.o...I G Z y 1 ",
"O. .I <.4.3.5.1.%.5.7.8.5...I H G G I I I A G G G G G I I I } D G H U O.%.2.w.7.6.0.5.1...U U o.o.<.o.<.I <.U U U Z t , ",
"....P 1.4.1.3.6.e.7.3.=.&.J G G F P H D A I I G G G G I I I } I H U U P ~ %.5.0.2.,.5.9.$.P P ..o.U o.] U U U I I k i u ",
"{ ....2.6.1.%.=.6.6.2.&.' J J F G U I I F G G G F G G H I I I I L P ..P @.=.2.2.*.*.&.&.2.$.o.O.2.O.U <.<.) <.<.U Z l 2 ",
"#.O.%.6.7.6.=.&.=.,.&.>.,.&.J J G G H A A D H A A G G G I I I } U o.$.%.=.*.2.1.....U o.1.5.6.7.8.3.1.1.U I ) <.<.S i 2 ",
"5.$.$.3.1.<.$.J _ >.( &.*.&.J D A M D A M A F A A D F I I } }  .o...1.2.&._ *...L .. .o.O.1.3.4.7.7.7.3.I <.I <.<.R y 2 ",
";.$...%.O...I G J ! ~ #.~ J B A M M D F M M A A D D G H } I I  .I ..1.9.&.( &._ P }  .O.<.%.2.1.1.4.6.3.<.<.<.I <.Y t # ",
";...@...o.} H } J L $.6...J L A M M M M M M M F A Z A D G G I } I I %.0.&.' &.] U P o.O.3.1.O...U 4.4.<.<.I <.I I ) t @ ",
"#.#.@...}  ...} I ..O.5.%.P H A D M M A A G D D G F M M A D I } F J ..3.5.5.2.) @.@...O.1.1...$.2.2.1.o.<.I I <.U Z t @ ",
"..@.$.U I I H I I ..P U U G G Z M M M M M D D D G D Z D I I I I G L U o.1.4.5.2.2.$.o.<.1.%.O.%.0.2.<.U <.U U <.U S t @ ",
"#.O.U U ..I I G I U I U P H G Z M M m Z A D D M A G D G I I I I H I I I U <.<.7.8.<.O.2.4.5.$.2.2.<.1.1.1.U U <._ S t @ ",
";.3._ U G G D G G U U .._ o._ I F G Z D H G F D D D G A D G G H H H H H I U ] 3.6.1.$.$.=.$.$.2.2.2.2.0.2.1.<.1.) T 0 o ",
"*.&.S S Z k k k k S S J ) ) ) D S Z Z m m m m M Z m Z k k Z k Z Z Z Z Z Z Z S ) ) ] ] ) T T ] *.) ] ] ] ` ) ) Y R Y 6 X ",
"! b y y i y t t 0 7 5 6 6 6 5 5 6 6 4 6 4 4 5 4 5 5 5 4 5 6 6 6 6 6 6 6 8 0 y y u y a c z c v v p l l l a a a i p a q + ",
"u q q w w 1 * & * & @ o @ o o o @ o o X o o o X X o o o @ X X @ @ @ $ & = * = = # & = 2 w w e w > > < < 2 u w 1 w e w & ",
"K P { &._ P L R ~ ( ~ ~ &.~ M M M n m n M M n g g M M m f % s Z L F P *.*._ &.U G J J J K Q ^ Q Q ^ ] ~ J S S ) { ~ G _ ",
"4.4.%.O.O. .O.O...P ..X.P H F M M D M D D M M M D D G A s $ n I H I X.O.O.o.<.O.%.O._ _ ~ &.+.&.+.+.&.$.P P L I O.O.1.3.",
"6.5.&.K U U %.2._ P G I G G D Z m n m n M M M M Z H G k 8 = M I D D I G H P o.U _ ! ( >.] >.:.' Q J Q ~ ! $.O...o.1.2.2.",
"3.=.*.=.*._ 5.e.*.L L D G D M F A A D M D M D A D } H j 8 q V F D H I I U $.2.<.P ) &.w.2.2.>.*.~ ~ _ %.1.2.%.O.1.6.4.2.",
"O.@.%.3.6.*.%.3.2.! J M Z D D D I I H G M M I F D H G j r q A H G I U o.1.6.e.2._ _ 2.r.0.5.=.=._ ( *.w.3.$._ ~ _ 2.2.<.",
"....1.=.2.$.%.=.=.P A M M D G I I I I G A D I I I I H Z y w D } L ..o.2.2.2.r.6.$.$.e.6.5.$.*.*.,.&.*.1.1.$.~ _ ' %.O. .",
" .o.O.1.2.7.7.w.%.} H G F H H I I I I I G D G I I I H Z y q A } P U ..1.1.2.5.4.3.O.6.6.=.@.~ &.9.,.2.$.1.%.*.,.*.$.U } ",
"o.o...@.=.6.7.5...I H H I I H I I I G D D A A I I I H Z y > Z H H  .U U o.o.1.<. .O.=.5.5.3.%.&.*.2.9.1.2.4.5.9.2.%.O.} ",
"<.$.O.%.2.6.%.O...I I I H } H } } I I D M M M G I I H k t = A I G U I <.<...<.<. ...$.>.>.9.5.5.2.2.6.4.4.r.r.2.6.4.4.1.",
"2.$.2.*.2.1.<.O.O.I G G H I } } I F H G D M A H I H G k t $ A I G G U  ...U o.U } o.@.&.*.2.0.=.O.O.1.4.7.r.8.1.5.8.8.6.",
"5.=.5.@.U U U  .} } H H I G H I D S A D I I I I I I A j 5 $ A I G I  .I  .} I H H ..#.$.1.1.6.1...U O.3.4.8.4.<.O.5.6.6.",
"7.2.*.@.P U } } } } D G D M D G I I G H I H I I H I D m 6 $ M H I I } } }  .} I } ..O.%.%.O.O.O.<.U O.<.4.8.4.O.O.%.2.=.",
"1.1.&._ _ G I } } I I } D M M D I  . .I I H G G G I D Z 5 $ M [ I I I I I I I I H o.O...I } } O.<.O.O.$.3.4.1.o...O.$.%.",
"O.%._ ..P D I I I I H I A m M F I I O. . .I I H H I G M 6 $ D H H I } I } I I H G H I H D I } } O.....O.%.1.O.U J U ..O.",
"P L U O.U F H I I I G I H D M G }  .O.O.<. .} I I D A Z 6 $ J H H H H I I I I I L G D G H I I H J U ..o.o.X.O.G H P J U ",
"J P $.1.$.I H D A } I I } H G G I I  ... .} } I I D Z j 6 % L } H H I I I I I U P J G G G I G M J J P O.....U U I P J G ",
"J ..%.1.O.U H A M I I I } H H } I I I I } } I I G G A j 6 $ M F G I I I } I I F J P I I D G M M A J P I I U G H I D Z F ",
"G P _ ..I } I H D I G F } H H H I I I } I I G G D A A Z 5 @ n M Z I I I I G G J J U } H D H D A L L U P G P L H G A M D ",
"U ~ &.P .. . .F G G D F I I I I I I I } I D D G Z M D m 5 o n M D P P A S B V L ~ ....H D D F I ..U I I P ....P J V J J ",
"( &.*.&.&.=.$.I D J J ..I I I I G I I I G D G G D D G m 6 $ M M S L ~ Q B G J ~ &.*.( J B J L U P G P } } P P P F B L ~ ",
"( &.q.0.=.=.=.$.P L J L .. .I I I I I G A G I D D G D k 8 = M M S P ! L J K U &.~ &.&.! J J F G G G G } ....P K J J ~ ~ ",
"( *.0.0.%.&.*.=.@.~ ~ ~ ..O.I I I } } I D D Z D I I A j u q n M S P U L ! ~ &._ ~ ' $.K G H A F G D S G  .U L L J ~ Q J ",
"&.*.*.*.*.@.$.=.2.*.*.&.$.O.o.} } } I } G M M F } I A j r q n J P @.=.&.*.&.*.@.( &...J A D A A G G H I I G D J S ~ ! ~ ",
"Q P &.,.2.@.=.6.5.*.&.( ..O.I }  .} I } H M Z D D H H m r > n V K $.,.,.=.=.=.#.$.&.J J M M A D M A U I I H D P U F S J ",
"M M J $.3.1.=.0.=.U U P U I I I } } I I I G A A M D D n 0 q M J P ( ,.:.>.,.2._ =._ P K A M A A A A F D D F M L P A M M ",
"M M S K @.=.,.0.&.L P H I I G G I I I I I I I F M M m f 7 = j D J ! &.9.>.&.&.! &.( _ P J M A A G G M A D D M S A M D A ",
"A M B J _ *.*.:.) ! J P S S A M D D G G G G G G Z k j f t * k A S ~ ' ] _ =._ ! / ( _ _ J B S G H G A Z m m m A M A A Z ",
"j j h h E ] :.` E E E k h h j h j j j j k Z k k f f f f t = j m Z J ` W R _ R N C E W ` S k m Z Z Z A m j h h j j m m j ",
"4 6 0 7 r p p a a a a u 7 5 6 6 6 5 5 5 t 5 5 5 % 5 5 % = & f t 0 0 i r a z l u u a z z 0 0 t 7 8 6 6 6 4 4 5 4 4 5 4 4 ",
". X - - # # # ; : 2 < < : - O O @ @     .       X   @     @ $ X X X O O ; , , , 2 2 2 < # # # # # + X # X . .       .   "
};
