/* XPM */
static char *exit[] = {
/* columns rows colors chars-per-pixel */
"50 50 221 2 ",
"   c #3B190E",
".  c #3A201E",
"X  c #1E202B",
"o  c #2A262E",
"O  c #392625",
"+  c #3D2525",
"@  c #3E2929",
"#  c #222633",
"$  c #252936",
"%  c #2A2D39",
"&  c #2D313E",
"*  c #441606",
"=  c #461609",
"-  c #4A1909",
";  c #4C1B0B",
":  c #521B07",
">  c #511E0B",
",  c #54210D",
"<  c #59240E",
"1  c #4F2416",
"2  c #562211",
"3  c #5B2513",
"4  c #5E2915",
"5  c #5D2818",
"6  c #632C16",
"7  c #682C12",
"8  c #632D1A",
"9  c #65311B",
"0  c #6B3319",
"q  c #6C331C",
"w  c #75371B",
"e  c #72351C",
"r  c #7C3C1D",
"t  c #41282A",
"y  c #493237",
"u  c #503334",
"i  c #6B3622",
"p  c #743B23",
"a  c #7B3D22",
"s  c #763E2A",
"d  c #7E431E",
"f  c #5A463D",
"g  c #7D4124",
"h  c #7D432A",
"j  c #764A38",
"k  c #22324E",
"l  c #333343",
"z  c #39364A",
"x  c #36384A",
"c  c #3A3A4B",
"v  c #223655",
"b  c #263656",
"n  c #253B5C",
"m  c #293D5D",
"M  c #3B3E51",
"N  c #333E5B",
"B  c #273E61",
"V  c #293D62",
"C  c #483745",
"Z  c #563A41",
"A  c #27415F",
"S  c #3C435A",
"D  c #274163",
"F  c #294365",
"G  c #2A456A",
"H  c #2A466A",
"J  c #2C4A6C",
"K  c #344B68",
"L  c #2C4E73",
"P  c #2D5174",
"I  c #2E557B",
"U  c #2C587C",
"Y  c #30567B",
"T  c #31597D",
"R  c #3E5B79",
"E  c #74544B",
"W  c #505362",
"Q  c #546778",
"!  c #756B66",
"~  c #7A716C",
"^  c #7D7776",
"/  c #813F1E",
"(  c #83431F",
")  c #824223",
"_  c #8A4625",
"`  c #83462A",
"'  c #85492D",
"]  c #8D4C2C",
"[  c #954D27",
"{  c #924E2B",
"}  c #93512D",
"|  c #9C552D",
" . c #874D31",
".. c #894E34",
"X. c #8D5236",
"o. c #865139",
"O. c #945433",
"+. c #9B5533",
"@. c #9D5A34",
"#. c #995939",
"$. c #A0542D",
"%. c #A35D34",
"&. c #A45C38",
"*. c #9E603F",
"=. c #A5633A",
"-. c #A96539",
";. c #AB643C",
":. c #B36B3D",
">. c #B76C3D",
",. c #BB723F",
"<. c #8B5942",
"1. c #945E42",
"2. c #91624B",
"3. c #A76744",
"4. c #B66D42",
"5. c #B76F43",
"6. c #B57241",
"7. c #BC7344",
"8. c #B87349",
"9. c #87776B",
"0. c #847A74",
"q. c #897C74",
"w. c #857E7B",
"e. c #C37A46",
"r. c #C67A46",
"t. c #C37C4B",
"y. c #C47C50",
"u. c #8C8077",
"i. c #8B827C",
"p. c #96887B",
"a. c #CD814C",
"s. c #D3854A",
"d. c #2F5C82",
"f. c #325C82",
"g. c #2F658B",
"h. c #316185",
"j. c #33648B",
"k. c #356A8D",
"l. c #356790",
"z. c #356A91",
"x. c #396C94",
"c. c #377396",
"v. c #36759B",
"b. c #3A739B",
"n. c #3B7A9F",
"m. c #377DA3",
"M. c #3C7DA3",
"N. c #587087",
"B. c #3B86AA",
"V. c #3C96B6",
"C. c #4386A7",
"Z. c #428BAB",
"A. c #4D8AAA",
"S. c #4595B4",
"D. c #6A97AD",
"F. c #46A3BF",
"G. c #4BAAC5",
"H. c #59AAC4",
"J. c #52B7CF",
"K. c #70B6CB",
"L. c #8A8483",
"P. c #8B8686",
"I. c #958B86",
"U. c #9F9388",
"Y. c #9C9594",
"T. c #A8978A",
"R. c #A39B9B",
"E. c #A89A98",
"W. c #B19E9C",
"Q. c #AEA096",
"!. c #ABA39C",
"~. c #B3A298",
"^. c #87ADBD",
"/. c #ACA4A5",
"(. c #B2A4A4",
"). c #B4A9A5",
"_. c #B6A8A7",
"`. c #B5ABAC",
"'. c #BAADAC",
"]. c #B9B0A9",
"[. c #BBB3AE",
"{. c #B6AEB1",
"}. c #BAAFB1",
"|. c #BCB3B4",
" X c #BAB4B4",
".X c #BEB7B9",
"XX c #BFB9BA",
"oX c #C2B19D",
"OX c #C0AEAD",
"+X c #C5B7AC",
"@X c #C5B9AD",
"#X c #C2B5B5",
"$X c #C4BAB4",
"%X c #CABEB2",
"&X c #C1B7B9",
"*X c #C2BBBC",
"=X c #C9BEBE",
"-X c #CCC2B6",
";X c #C7C1BF",
":X c #CCC2BA",
">X c #D0C6BB",
",X c #D2C8BB",
"<X c #93BECE",
"1X c #C5BEC1",
"2X c #C9BFC1",
"3X c #95C4D4",
"4X c #A3C7D4",
"5X c #B7D9E2",
"6X c #C6C1C2",
"7X c #CAC3C4",
"8X c #CEC8C4",
"9X c #CDC7C8",
"0X c #CFC9CA",
"qX c #D2C8C4",
"wX c #D2CCCC",
"eX c #D7D1CE",
"rX c #DAD4D3",
"tX c #DDD9D9",
"yX c #E1DDDD",
"uX c #E0DFE0",
"iX c #E3E2E2",
/* pixels */
"oX:XqXqX>X_.:XeXrXeX9XOXT.%X%X:X,X@X-X:X;X#X5X4X<X<X4X$X[.%XwXwX9XrXtXyXuXiXuXtXyXtXtXiXiXtXtX2X2X(.",
"%XwX2X*X7X*X&XqX2X1X#X'.W.eX*X7X8X;X5XK.H.V.Z.Z.C.B.C.C.A.K.^.:X1X2X#X2X2X2X2X1X1X{.OX2X2X.X1X1X}.I.",
"-X7X|./.XX*X2X#X_.#X&X`.E.eX*XXXXXK.G.V.V.m.m.m.m.m.v.v.b.n.Z.Z.<X(.'.#X1X{.|.}.1XOXW.2X1X1X1X1X2XL.",
">X2X(.R.2XXX*X*X1X#X{./.Y.eX X3XG.V.B.S.B.m.m.v.v.x.v.b.b.b.x.n.B.D.}.#X`.1X1X1X(.(.E.{.1X1X/.&X1XP.",
"+X}.`.`.*X*X*X&X&X1X{.`.W.yXK.G.B.n.b.k.f.L D B V V n B I z.x.x.x.C.A.`.&X'.#XW.(.1X.X1X1X1X1X{.{.L.",
"OX&X.X|.*X|.|.{.}.}.}./.E.K.F.M.v.U h.h.Q W 2.1.;.*.<.E C V L j.z.x.G.D.#X(.E.(.OX&X1X.X1X1X.X1X1Xw.",
"+X=X&X1X{.XX*X(.|.2X{.Y.<XG.M.M.g.k.c.N.2.#.| [ [ { $.+.{ E v V g.j.k.M.D.(.`.|.1X|.&X1X1X.X1X.X1XP.",
"%X&X}.1X}.|.*XXXXX|.{./.G.S.M.n.P k.Q 2.X.) ( ) { i / _ [ } o.N G h.h.k.x.2X*X*X1X1X1X1X1X.X1X1X&XP.",
"%X9X&X`.}.|.|.2X1X|.(.H.G.M.M.b.F Q 1.' d @.7.=.4.s ;.$./ [ +. .b L j.d.b.f.&X2X(.}.6X6X1XXX1X1X1XP.",
"-X9X|._.`.(..X}.{.}.T.J.B.M.n.Y S o.] 8 @.:.t.=.4.` >.;.$.$.| +.s b d.d.j.l.*X*X|..X6XXX6X{.1X6X1XP.",
"%X9X1X&X&X#X*X#X.X1XK.J.M.n.z.K o.| e O.=.:.8.-.4.) 4.:.%.a.%.| | C G f.f.x.N..X|..X1X X`./.6XXX1XP.",
",X0XXX&X(.|.1X`.&X{.G.B.n.v.L E | ( ] 6.3.:.a.=.4.s e.>.%.e.s.{ $.j b f.f.f.K /.R././.`.Y.R.Y.Y.R.w.",
",XwX.X*XXX`.{.|.&X&XG.m.v.I N o.| w =.:.=.4.t.3.8.g 7.,.=.7.a.-.| +.C P T U L [. X[.[.).!.!.!.Y.Y.P.",
"%X0X*X*X}.}.|.*X1X&XV.M.z.G S O.{ w =.,.3.6.8.:.7.h e.e.=.e.,.:.| +.u F T U L eX6XwX8XqXeX0X8X8X2XY.",
"%X0X&X}.}.1XXX|.&X/.V.b.z.G M O._ d =.,.;.6.8.-.a.h ,.r.=.a.,.:.@.$.Z B T U L ;X;X*X*X;X$X$X_.[.OX9.",
"%XwX1X&X|.&X{.|.1X`.B.b.z.V M O.) d *.,.3.6.6.6.a.h a.a.=.r.,.-.%.%.y A Y T P ;XXX;X8X*X;X;X;X;X2X0.",
"%X9X&X|.|.}.}.*X*X'.B.x.k.B S O.g p =.,.&.7.4.4.t.h s.a.=.a.4.:.#.$.Z V T Y P 7X=X.X$X*X;X;X;X;X6XL.",
">X9X|.}.1X1X&X1X}.|.B.x.k.A S X.d d =.6.3.4.>.8.y.' s.r.=.t.7.;.+.$.Z V Y P L *X=X2X|.$X{.*X7X;X;XL.",
"=X2X|.}.`.&X|.|.#X_.B.k.z.B M O.g d @.6.;.4.3.8.y.` a.r.=.t.>.;.&.+.Z V I P L '.#X=X6X*X*X*X*X7X;XI.",
">X7X}.}.}.&X1X&X#XW.m.z.j.G M O.d e #.:.;.4.&.3.8.` t.t.=.t.>.-.+.} y V P P J *X#X].*X$X'.+X*X6XXXi.",
":XwX&X1X1X.X.X*X|.#XS.J.j.D M O.g 0 +.=.=.;.&.8.7.) r.7.+.7.,.=.O._ y V P P J $X'.'.+X].(.'.#X$X*Xp.",
"+X|.XXXX1X2X1X.X&X&XS.H.j.V c O.h e } O.&.;.@.8.6.s 4.7.} :.-.@._ _ u F L L G 7X$X#X*X$XXX#X.X:X;Xi.",
"+X7X&X&X1X&X|.`.{.&Xv.k.j.F c O.) e } } #.;.+.3.5.s 4.:._ -.:.| a ) y m L J G XXXX*X X X$X X[.].~.~ ",
"%X&X}.|.}.|.R.Y.`.{.v.f.f.F c X.) 0 ] ] @.&.O.3.3.p ;.:._ -.-.| p ( y m L J D .X{.].|.XX X`.|.[.Q.^ ",
"T.w.0.w.w.u.p.p.u.p.z.f.f.G x O.) q ] ] +.&.] 3.&.p &.;.' &.&.[ q / y n J G G i.~ 0.0.i.u.^ ^ ^ ! u.",
"oX>X:X-XqXeXyXrXyXrXk.f.d.J x O.) q _  .+.+.] 3.&.p &.&.` &.%.] 0 r y n J G V %X:X:X,X-X-X-X[.-X-XQ.",
">XtXwX9X9X0XwX7X6X7Xj.f.T J x X.) q _ ` O.O.` #.&.i &.&.` 1.j h 7 r y n G G V 6X$X0X9XXX;X9X9X9X:XY.",
"-XwX*X&X2X2X2X{.*X*Xk.Y Y J c X./ 7 ` ` ] { _ 1.+.i $.#.` f & u 6 w y m G V V 2X[.7XXXXX1X;X1X1XXXP.",
"$XwX2X2X2X}.|.`.&X*Xj.I Y J z X.) 7 ) ` ] ] ) #.O.i O.| + l % % + 6 y m G D m *X'.'.6X6X6X6X6XXX/.i.",
":X9X1X1X.X*X&X}.*X=Xh.U Y J c X.) 7 ) s ] ' a #.{ i } ' l l l $ % 1 t m G G n 7X X'.6X6X;X6X;XXX X^ ",
"%X7X.X1X2X2X7X2X2X*Xh.Z.T K z X./ 6 p s ' ` p #.] i } f & $ $ $ $ O t n D D n 2X.X X*X*X6X9X0X7XXXi.",
":XwX2X1X.X*X*X7X=X_.T I Y G z ..) 6 w a h ) p X.' 8 ] y $ X X # $ O t n G V n #X6X6X7X6X7X6X1X6XXXP.",
"@X7X7X#X#X&X&XXX_.E.T P L K z X.( 3 e g h d p ..` 8 ' u # # $ # # . @ A D A v {.*X7X1X6X6X6X6X X.XP.",
"%X$X&X(.*X*X&XXX}.(.Y P J F z ..) 4 0 e h e 0  .g 8 _ 6 o # # # o = @ n D D v 7X7X6X7X6X6X6X1X6X6XP.",
">X*X*X(.7X*X.X*X}.(.P J J F z ..) < 0 i g i q  .h 5 a 3   . X .   < + A B B n 1XXX1X6XXX XXX1XXXXXP.",
"$X9X1XE.7X*X*X6X*X'.P G J V z ..) < 0 p p q 9 ' p 5 w 3   ;   ;   , + b A A v 6XXX7X1X1X.X6X`.*X7XP.",
"+X#XR./.`._./.R.R.R.J J J F l X.( , 7 q p q 8 ` e 3 q 3 - > ; ; * : + n A n v 6X6X6X6XXXXXXX X/./.L.",
"~.]._.Q.).!.!.E./.!.J G G m z  .( , 6 q p 9 6 h q 5 4 3 = , ; ; * , t b n n v 7X7X7X0X6X7X6XXX`.`.L.",
"@XeX7X+XeXwX8X:XXX8XJ F G m l ..( , 6 q p 6 5 h q 2 5 2 = 2 , , * , + b A A v 7X9X6X6X7X1X`.;X;X.XP.",
">X7XXXXX;XXX*X XXX XG F D n l ..d ; 3 q p 8 2 h q 2 , , ; 2 2 , * : t A Y v v ;X6X6X|.6X6X1X6X7X7XI.",
"-X7X XXXXX*XXXXX*X XD D D b l ] d : , 9 i 6 3 h 9 , , , ; , > 1 * > @ v D v v 7XXXXX X X1XXX6X6X7XP.",
">XwXXX*X*X*X'. X.XXXA D D b l X.g : > 4 q 4 3 p 8 ; , ; * , > , = : @ n n v v |..XXX1X XXX X6X6XXXL.",
"-X0X;X*X*X*X|.[.[.*Xm D A v l ../ - > 2 9 3 3 i 4 = , , = 2 , , = : O v n v v *X1X1X.X9X1X6X1X1X{.i.",
">X7X*XXX*X*XXX*X X'.m n A k l ..a - ; : 4 2 2 i 2 * ; , * , , , * : O v n v v ;X7X1X6X7X6X7X7X6XXXi.",
"-X*X XXX XXX X#X X$Xn n n v l ` r = : ; , , , 8 , * , > * , > > * : + v v v v |.*X X9X7X6X6X6X7XXXi.",
"-X7XXX`.XX*X X*X;X;Xv n v k l ' / = > - ; > ; 2 ; = > > * , > > * : + v v v v *X.XXX6X7X6X6X6X.X XL.",
"%X=X|.*X*X;XXX;X*X*XD J A A x ' / 7 6 3 q q q 9 q 8 q q 9 0 0 9 ; : + A J G J 7XXX6XXX6X6XXX X6X{.i.",
"@X7X.X_.*X*X[.XXXX*XJ K K J K X._ _ e ) { ] ] ] ] { { { ] ] } { 7 : y J J J J 6XXX`./.XX*XXX`..XXXL.",
"].XX X[._.|./.(.|.S A A A A R #X X$X X/.`. X.X{.L.-X7X.X X X`. X'.{.`.D F A A A ~.T.E. X X`.E.`. Xi.",
"U.I.i.0.w.i.u.q.p.I.u.w.u.w.^ ^ ^ L.^ ! ! ! ^ ^ ~ T.I.^ ~ ^ ^ p.i.p.9.9.9.p.p.u.u.u.9.p.p.I.u.p.p.u."
};
