/* XPM */
static char *floor_m[] = {
/* columns rows colors chars-per-pixel */
"60 60 121 2 ",
"   c #7A6C5E",
".  c #736864",
"X  c #7A6C61",
"o  c #746C6A",
"O  c #7C7167",
"+  c #7A716C",
"@  c #7D7674",
"#  c #7F7874",
"$  c #7F7978",
"%  c #80746E",
"&  c #86796D",
"*  c #8A7B6D",
"=  c #917F6A",
"-  c #807571",
";  c #837A75",
":  c #8A7D74",
">  c #857D7A",
",  c #897F78",
"<  c #8D8076",
"1  c #87807D",
"2  c #8B827D",
"3  c #908172",
"4  c #92867D",
"5  c #95897F",
"6  c #98897F",
"7  c #A5927F",
"8  c #857F80",
"9  c #878283",
"0  c #8B8483",
"q  c #8F8885",
"w  c #8F898A",
"e  c #908783",
"r  c #938984",
"t  c #9A8D84",
"y  c #958C8A",
"u  c #9A8E8C",
"i  c #9E9184",
"p  c #97908D",
"a  c #9C928B",
"s  c #959091",
"d  c #9D9392",
"f  c #A28F8B",
"g  c #A39385",
"h  c #AD9887",
"j  c #A2958C",
"k  c #A4988D",
"l  c #AB9C8B",
"z  c #A29592",
"x  c #AC9792",
"c  c #A39896",
"v  c #AC9A95",
"b  c #A59C9C",
"n  c #AB9D9C",
"m  c #B29E94",
"M  c #B09C99",
"N  c #B2A28F",
"B  c #ADA19D",
"V  c #B4A392",
"C  c #B3A39C",
"Z  c #B6A99F",
"A  c #BBAC9D",
"S  c #AA9FA0",
"D  c #ACA3A4",
"F  c #AEA7A8",
"G  c #AEA9AA",
"H  c #B3A5A4",
"J  c #B9A6A3",
"K  c #B5A9A5",
"L  c #BAACA4",
"P  c #B1A7A8",
"I  c #B4ACAC",
"U  c #B9ADAD",
"Y  c #BDB1A7",
"T  c #B7B0AF",
"R  c #BEB3AC",
"E  c #B6AFB0",
"W  c #B9AFB0",
"Q  c #B7B0B1",
"!  c #BCB3B4",
"~  c #BEB7B8",
"^  c #BFB8B9",
"/  c #C2AD9A",
"(  c #C1B09E",
")  c #C0AFAC",
"_  c #C5B3A5",
"`  c #C1B6AC",
"'  c #C3B9AE",
"]  c #C8B9AE",
"[  c #C1B5B5",
"{  c #C4BAB3",
"}  c #C9BDB3",
"|  c #C1B7B8",
" . c #C3BCBC",
".. c #C9BEBD",
"X. c #CCC1B6",
"o. c #C7C0BF",
"O. c #CDC3BB",
"+. c #D0C2B5",
"@. c #D1C5BB",
"#. c #D3C9BE",
"$. c #C5BFC0",
"%. c #C8BFC1",
"&. c #C7C0C1",
"*. c #CAC3C4",
"=. c #CDC7C8",
"-. c #CFC9CA",
";. c #D2C5C3",
":. c #D3CAC3",
">. c #D8CCC2",
",. c #D2CCCC",
"<. c #DAD2CE",
"1. c #D5CFD0",
"2. c #D6D1D2",
"3. c #DAD5D4",
"4. c #DED9D5",
"5. c #DBD7D8",
"6. c #DDD9DA",
"7. c #E0DAD7",
"8. c #E1DDDD",
"9. c #E2DFE0",
"0. c #E5E3E3",
/* pixels */
"( @.;.:.>.@.U ` <.7.<.3.:...g A @.} #.>.X.] @.@.@.X.O.O.O.Z N X.[ } ] ;.<.1.1.1.8.5.9.8.9.9.9.9.8.8.7.8.0.9.3.7.1.;.@.C ",
"{ 2.=.=.-.-.| [ *.=.;.*. .| u { 5...,.2.,.-.6.5.2.,.2.-.-.B ' 6.,.-.%.%.-.-.=.%.%.%.%.=.-.=.=.$.$.| ) %.1.2.|  .%. .W f ",
"+.,. .Q P ~ ^ ^  .! ! W | | r } ,.[ I &.Q ^ o.^ o.&. .I  .s ' 3.%.$.$.^ [ J [ | W U | %.~ $.$.! E ! v I %.|  .| ~ ~ ! 9 ",
"#.,.W P E  . .$. .! P |  .! > { 6. .Q ^ o.T ^ o. . .Q T ^ s ' 3.$.$.~ E U I ) C P W W W W ! | W | | M E %.%.%. .$.&.^ w ",
"} *.I S F  . . .$.$.[ | ! ! 1 R 5.~ ! ~ ^  .o.&. .Q Q ~ ^ p ' 3.^ $.! ! $.~ | $.W $.$.~ W %.$.W H P P P ~ $.$.! I ! ! 0 ",
"] | ! E W |  . .| ~ |  .! ~ q X.6.| o.o.&.*.&.o.Q Q o.o. .y ' 6.$.$.$. .~ $.| ~ $.! W | W W J M J ~ $.^ $.$.$.$.^ ~ ! 9 ",
") [ ! ^ ~  .~ W I I I Q I W q { ,.o.^ ^ &.&.&.&.Q Q &.$.^ y { 6.$.$.$.$.$.$.$.! ~ ~ Q ~ P z z M | | $.^ ^ $.$.$.$.^ ~ 9 ",
"_ ;. .~ ! ~ ! ~ ! I [ | ! P 1 R ,. .o. .&.o.&.^ '  .^ $.^ q { 3.$.^ ~ ! W I ) $.~ Q E $.! H [ ! ^ ~ $.^ $.$.^ ^ ~ ^ $.9 ",
"} %.Q | | W ! $.~ P $.! W D 1 L $.^ ^  .o.o.^ !  .^ ^ $.^ q ' 5.~ I ! ^ H v U  .! ! ! $.| W W ~ $.%.$.$.&. .^ $.$. .^ w ",
"} *.| | W | | %.$.%.$.~ W ! ; K 1.! o.&.&.o.^ ~ T ! ~ *.^ q ' 1.U | $.Q c c | ~ ~ | B E  .$.$.$.W U %.$.&. .$.&.$.~ ~ 9 ",
"X.2.$.Q I P I W ~ ~ %.! n n @ R ,.I ^  . .T ~ ~ T ~ { o.$.1 Y 6.Q | &.^  .! *.^ *.%.E ! ! W $. .x M %.$.$.$.~ $.$.*.&.w ",
"@.1. .I I I v ! ! S $.E f j @ Z R T ^ ^ ! K K ~ !  .$.$.^ 2 R 1.! *.&.&. .| $.| ~ *.%.$.&.~ ! ^ [ $.$.$.^ *.Q ! &.&.$.s ",
"@.,.^  .^  .[ [ ~ W ~  .[ C - C R C !  .~ R B L &.o.^ ^ ^ 2 ' 2.I ! | &.^ D Q *.~ $.$.$.=.&.&.~ | $.~ $.E ! I I  . .~ w ",
"#.5.^ ^ ! F !  .W $. .E | U 0 V O.H ~ ^ ! T C o.o.^ ^ &.^ q ' &.I F F F F D D D G E G D G I G G F S P W P b D D S F D > ",
"#.5.|  .$.W ! I W ! ! ! W E 8 U ,.! Q T ! Y o.o.^ ^  .o.Q 1 a a e t 0 5 t a j g g k d u k a a i u j z a e 1 4 5 $ # ; & ",
"#.2.| ~  .W P U ~ | | $.%.P > J :.^ ~ I ^  . .{  .o.=.^ ^ 2 N { :.O.{ #.<.3.4.7.8.8.3.3.7.4.4.4.5.3.3.:.-.O.o.O.! ~ ` h ",
"} 1.$. . .E U | ~  . .~ U I 1 Y 2.| ^  .| ~ R [  . .&.&.~ 2 R 5.3.-.*.-.,.,.,.,.<.&.&.-.,.,.,.*.{ *.-.o.-.1.,.o.*.,.*.t ",
"} ,.$.| P ! $.~ ~  .| H H | 1 Z *.Q P I ! Q ! !  .&.&.*.o.2 R 2.*. .|  .o.*.o.*.&.o.o.o.o.*.o. .| o. . . .[  .Q ! | M % ",
"X.2. .^ E ^  .E Q  .| F U [ 1 L :.! T T Q [  .!  . .o.*.~ 4 ' 3.o. .&. . .*.*.*.o.o.o.*.*.&.&. . .*.*.o.|  .o.o. .&.! ; ",
"O.2. . .~ ^ ~ W ^ $. .I ~ I , L *.~ ^ [ K ~ |  .o. . .o.~ 1 ' 2.o.~  .&. .o.*.o.!  .o.o.*.o.&.*. . . .o.o.o. .&.o.*.%.q ",
"@.=.! [ E W | !  .$.W E ~ H ; L ,.~ H J `  . . . .o.&.o.Q 1 ' 2.^ T ~  .o. . .o.*.o.Q ~ | | ~ o.*.| T | | ^ o.o.o.=. .0 ",
"@.,.^ W W !  . . .! W ! [ I 1 ' 5.! U m  .~ | | o.o.^ o.B & X.2. .-. .R {  . .o.*.^ Q { R  .| |  .o.o.[ { ! | o.&.*. .0 ",
"O.=.! ! E W $.| ! ! W v ! ! r ' 5. ...V [ R ! Q o.o.~ ! B ; R ,. .|  .B U  .o.o.*.o. .^ | o.U R  . .o.o. .~ !  .o.*.o.e ",
">.-.~ I W ! |  .|  .W m C ~ p _ ,. . .[ J U U K ! =.o.T B < R 2.| K | D Q { o. .o.*.&.&.*.o.! ! [ U L o.! U R | o.*.! 2 ",
"@.2. .~  . .$.~ ^ ~ ~ | [ ! r Y o. . .! U U ~ Q ! &. .~ ^ 2 R 2.o.~ R [  .!  . . . . .*.*.&.O.[ L J L ) [ H U [ { ..W e ",
"{ &.^  .$.$.$. .^ ! ^ ^ ^ ! w ' 1. . . .Q v C v ~ &.~ ^ ! 2 R 3.o.o. .! { ~ T ~ T T o.&.&.o.*. .! ~ { ! I U ! T [ ..| > ",
"`  .[ | ^ $. .^ ^ Q !  .o.! y { 4.o.~ ! | U A m o.o.^ o.I 1 R 3.o.T ^  .o.&. .| ~ ~ &.o.o.o.o. . .^ ~ ! |  .| ! ! U T : ",
"} ,. .~  .~ ^ ~ B G ^ ^ ^ ~ q R 6.*. .I ^ | ~ D o.*.=.o.B 1 R 3.^ K T Q o.&.o. .^ R o.| o.*.o.~ | | |  .|  .Q R [ L j X ",
"' &.F I E P E D w d D F D D 1 R 2.^ ! G ! ~ D c T ~ T K b # R ,.T F B F Q Q T D B D G Q T Q I T D I H T ~ Q P T ~ D z > ",
"l t + 1 > e 2 t i 5 t i 5 1 3 l k 1 > # ; > ; # # 1 ; 1 1 3 l a r r r t t i i g t t a t 5 r 5 2 ; : : 2 4 2 ; ; , ; X * ",
"A X.R { { O.:.3.2.<.4.:.O.~ X.' X.X.' K Z ` R A R R K V Z k N X.*.:.:.>.-.:.:.<.>.3.<.{ l V X.{ ` { X.} { ' ' Y K R ` V ",
"O.8.6.2.,.-.,.2.,.-.=.=.=.o.=.,.2.3.2.=.o.,.-.&.<.,.{ X.~ a ' 3.2.3.-.,.-.-.*.2.^ ^ -.&.d { 9.o.| -.,.-. .&.2.,.,.1.-.b ",
"@.4.o.!  .$.$.*.| E | $.| %.~ *. .Q ~  .! ! ! |  .! H W I ; ` } I | $.| ^ ^ E  .[ P Q  .y ` ,.~ U *.%.[ [ ~ $.$.&. . .q ",
"X.3. ...%.*.$. .E ! $.%. .$.%.%.$. .E  .!  .! | &.$.[ [ E > } ;.J | $.*. .| Q ~ [ L [ ~ p ` 3.o.! [ *. . .$.&.&. . .E 0 ",
"X.3.&.&.$.| U W P W $. .| $.%.$. . .E P I !  .%.*.$.[ | ~ 0 [ 7.~ ^  .=.*.%. .| %.[ U [ y ` 5.&.! H $.&. .&.*. .~ E F 9 ",
"@.1. . . .~ ..*.| ! *. .|  .| ~ | *.Q U D U W  .*.&. .&.$.r ' 8.=.| $.*.=.{ &.$.$.~ U  .p R 3.&.! F ~ &.| $.*.*.$.| H $ ",
"O.1.Q | %.%.%.$.%.%.%.| | $.*.! P ~ *.$.~ ~ I P  .$.$.*.%.y } 2.%.$...%. .U H | &.Q I ! e R 3.o.~ ~ ~  .$.&.&.=.*.*.W > ",
"X.2. .*. . .%. .%.%...U [ |  .W ! [  . . .%.*. . . .%.=. .y ' 2.&.&.%. .! u d [ o.|  .Q 0 Y ,.| %.&.$.$.%.=.=.&.=.%.~ w ",
"X.2.*.%.! [ | | $.$.J M J J | | | W Q P  .%.$.$. . ...| W 0 ` 3.$. .*. .D c H U Q ! &.&.t ` ,.[ $.=.&.&.&.$.&.&.$.Q ~ w ",
"_ { *.~ H W $.$.~ ! S b x S U W ! W | W | $.$.$.~ | W ! E 0 ` 5.=.=.,.*.$.| ..[ K [  . .y { 6.o.&.&.$.&.&.&. . .$.~ $.w ",
"+. ...Q I &.$. .~ $.| S S U %. .W H [ ..I | $.$.~ ! B |  .e { 6.=.&.~ o.T T  . .~ ~  . .p X.3.&.*.&.*.*.&.*.$.$.&.=.$.q ",
"@.*.~  .| *.| Q $.! W H J | %.%.R H U [ ! %.$.&. .W ~ &.~ 2 } 7.*.o.B T R ~ ^  . .| &. .p X.6.^ ^  .&.*.Q Q ^ $.! &.^ 9 ",
"@.=. .! I  . . .$.| | E ! %.$.%.Q H U { [ ..%.| [ | &.&.| e R  .^ O.o.~ o.o. . .|  .&. .s { 3.&.^  . . .^ Q &.~ Q &. .0 ",
"X.,.E F I ~ ! Q P F S E P ! W W I d B G I I | W E ~  . .I q A { L | !  .~ ~  . .o.&.*.&.p K 2.&.&.&.&.$.^  . .! I I I 9 ",
"l v t r t i t 4 2 4 e 5 0 4 e 2 1 @ # # ; 1 > ; + ; > > # < ( :. . . .! ~ ^ ~  .*.o.$.$.p L 3.=.=.=.*.=.$.*.$. .F b D 9 ",
"L >.#.O.} >.....O.{ o.o.} ..[ { X.R L R R [ R R R ` R ` A 7 +.3.&.*.o.&. .$.T  .*.$.$. .a R 5.*.&.*.&.=.&.*.$.~  .~ I 0 ",
"o.6.&.| *.,.,.&.&. .[ *.=.=.;.,.,.,.-.,.,.,.3.2.3.3.2.2.*.5 ` -.^  . .&.$.$.Q $.*.*. . .a ^ 8.=.=.$.$.*.&.&.I ! *.$.| 0 ",
"@.,.! ^ ^  .| ~ ~ ~ ! ~ | ~ ~ !  . .o.~  . .^ ^ ^ &.^  .! 4 Y =. .&.o.^ ~ Q *.$.$.$.o.~ p o.8.&.&.$.! ~ &.&.$. .*.=.&.e ",
"X.-.! ~ ^ ~ &.~ ~ ~ ~ Q P B L I [ Q  .| ~ ~ ~ ~ ^ ^  .&.~ 2 K =.&. .*.&.D F  .&.~  .&.Q 2 ` 2.=.| ^  .E ~  .^  .&.*.&.q ",
"#.2.^ ~  .o. .^ ! ~ | ^ P H L |  .| ! U W |  .~  .| ^ &.^ 1 Y ,.&.~  .&. .Q T ~  .|  .[ 0 ` 3.| ~ | $.^ !  .I &.&.&.^ y ",
"#.2.&.^ $. . .! Q P  .|  .[ U Q $.&.Q U I ~  .E  .~  .&.^ 0 R 2.&.~ I  .^ o.~ ! | !  . .r ..8.! [ ^  . . .^  .| &.&.Q 1 ",
"@.2.^ ^  . . .^ | Q ~ Q ! D D K ~ B D L  . .~ E ~ I I ^ ~ 1 R 2.! Q Q o.o.o.o.o.W |  . .r { 6.&.*. .$.$.*.&.*.*.*.&.I 1 ",
"#.,.^ ^ ~  .~ ~  .U T ! ! Q ^ ^ c z u v I ! | ~ Q ! Q Q P : Y  .T U ! o.~ o.*.&.$.*.&.$.0 Y -.o.=.~ &.=.*.=.&.=.*.*.I 1 ",
"{ o.o.T Q Q  .Q T ~ | &. . .^ ^ I P D ! W H U  .~ ! ! o.D % Y ;. .^ Q o.o.^ &.&. .=.$. .q R -.~ ^ ~  .=.*.*. .&.*. .Q 0 ",
"X.o.=.G I ! $.~ ^ &. .&. . .~  . .~ D Q Q ~ ~ ^ Q !  . .Q ; A ;.o.^ ~ o.*. .^ Q W U U ~ e ` &. .~ Q  .*.&.&.&.&.^ ^ ~ 0 ",
"X.-.~ ^ ^  .$.^ ^  .^  .^ !  . . .T ~ ^ ~ I I U U ~  .^ ^ e L ,. .&. . .| o.| ! *.{ ..I 2 ' ,.*.^ ~ &. .=.*.&. . .T U 1 ",
"X.,.| T T  .o.~ | ! |  .| E ~ Q U |  . .Q Q Q ~ ~  .^ ! ~ y R ,. . .&. .| o. .| *.&.&.Q 1 ' 6.*.&.Q P ~ &.*.^ I !  .| 0 ",
"' -.^ ! T | o.~ Q  .o. .~ D I ! | &.&. .^  .Q K U ~ ^  .! y ` -.*. .=.*.o.&.&.&.&. .Q I ; ` *.*.$.F n E |  .! I [  .~ q ",
"Y ^ T T T D I D c n F I D u c T ! Q Q Q ~ ! Q d D E ~ ! D 1 R -.! I I P b F I F D b 2 ; O V b F S t r d F F D b d I F 1 ",
"i a 1 1 ; ; 1 < : < 4 t < & 1 , $ $ $ 1 8 8 $ o . o @ @ @ O l p 9 @ o ; + < 4 < : ; X   3 7 t < : : * : 6 t 4 4 : e 4 * "
};
