/* XPM */
static char *floor[] = {
/* columns rows colors chars-per-pixel */
"50 50 90 1 ",
"  c #7E7166",
". c #7E7573",
"X c #857B74",
"o c #8B7E74",
"O c #847C79",
"+ c #897F7A",
"@ c #87807E",
"# c #8C827D",
"$ c #91857D",
"% c #9B8B7B",
"& c #8D8583",
"* c #8F8884",
"= c #918783",
"- c #938985",
"; c #9B8D83",
": c #948D8B",
"> c #988F8A",
", c #97908E",
"< c #9C928D",
"1 c #958F90",
"2 c #969091",
"3 c #9C9492",
"4 c #9E9897",
"5 c #9E9899",
"6 c #A19386",
"7 c #A1958E",
"8 c #A5988E",
"9 c #AC9E8F",
"0 c #A19793",
"q c #A49A95",
"w c #A99D93",
"e c #A59C9B",
"r c #A99E9B",
"t c #B19E9B",
"y c #AEA195",
"u c #ABA19D",
"i c #B2A397",
"p c #B3A49D",
"a c #B5A99D",
"s c #BAAD9D",
"d c #ACA4A3",
"f c #AFA7A8",
"g c #B2A6A4",
"h c #B4A9A5",
"j c #BAACA4",
"k c #B0A7A8",
"l c #B5ACAC",
"z c #B9AEAC",
"x c #BBB0A7",
"c c #BCB2AD",
"v c #B7AFB0",
"b c #B8AFB0",
"n c #B7B0B0",
"m c #BCB4B4",
"M c #BFB8B7",
"N c #BEB7B8",
"B c #BFB8B9",
"V c #C0B3A6",
"C c #C1B6AD",
"Z c #C3B8AE",
"A c #C8BAAE",
"S c #C0B6B4",
"D c #C4BAB4",
"F c #C9BDB4",
"G c #C0B7B8",
"H c #C3BBBC",
"J c #C8BFBB",
"K c #CBC0B7",
"L c #C7C0BF",
"P c #CCC2BC",
"I c #D1C6BF",
"U c #D2C8BE",
"Y c #C6BFC0",
"T c #C8BFC1",
"R c #C7C0C1",
"E c #CAC3C3",
"W c #CFC8C6",
"Q c #CDC7C8",
"! c #CFC9C9",
"~ c #D1C7C1",
"^ c #D2CAC5",
"/ c #D2CCCB",
"( c #D7D0CE",
") c #D9D2CE",
"_ c #D4CFD0",
"` c #D6D1D1",
"' c #D9D4D3",
"] c #DCD8D6",
"[ c #DDD9DA",
"{ c #E0DDDD",
/* pixels */
"CU^^~SF'')^z9JP^^FU^WIIPxsPLKP((/''[[{{[[''{{''TTg",
"K/RYRGGTTTHgp/TE^R/(!!EEdK)ELLRJTHHTQTTYGbSQTBYYS7",
"UEnlNHJNbbBdw/JbHMGHRBnN5M/LHmclbzvmGmGmmztGYYBYG1",
"PJkkNHYHmmNd0/YmGGGTBmmB5K/HNmNmSbmBbGYbllgGYYmmG:",
"DGblNHGGGGNdr(THJRRYmmRBqD_YYBHYGYNmmblphGmYYYBNm:",
"CGNNGNnvbbbrr^TGYRRYnmRB4G_YYHYBGNmmmtrgSYYmBYYBN:",
"AJGGmmGvmmb00PTHHRHMDMHB3D_NmmlhGGmmHbnMGYYYYNBBY1",
"JHmNmGYNYGbe<JHHYRHNNNYB3D!bBmrumNmzGGBBGGYYYBTYN1",
"J~GblbGGYmk0<TGGLMMMnMLR,ZQmJNlnHRHlmmBBgzTTYHYYY2",
"U/mllgbzmmq--SbGMnlnMHHB,mQGRRHHHBRYYHMNbBYBYmMRY2",
"~QGGmmNmGGS7;VgGMmgxLBBB<DEnmGmfmNBMHYBNGGNmvlvGG2",
"^_GGvmmmGmbr<DSmmcxHLBHN,afeeeeeeugueddeeedr34033@",
"^/GHmlvmGGGe2TGbnMHKBLLM,8uguazcZDMmcMcmmmcguur43;",
"I!HGmzNBYGG07TYGMGmMBLRB>x(/E^``(]//('`/~/^//!RETw",
"JWGbmHNBGlld7JGlnmmmLLLL<c`RBLEEEELLEEEJHRHJHJmHz+",
"I/HmmBvNGlSr7JSbnnDMBLLL<Z(HLHLERLLLEEYYHRYHHYHYS=",
"E!GNmNmHBvmq<LHncmGHHJRM:D!MMYHRRHHHLLJRYMHJHTTER2",
"~TmvmBBHmmmq7^GhjDHGYHYn=D!HHDHHLRHnMMDHYHNmGHJER2",
"~TmvvYBNbgmuy/RmsSSmJYMh#ZQJJhmHLRLMDGmmHYJHSmJTR,",
"^EmvmBBBmphfyWEHzzzlMENg-Z!nmlnDLRRRJRGmmzDGzSHTM:",
"~^GHHHBBNGSdwKHHShzzmYGN<c/BmmDmHMHHERLDzjCmhbSJm:",
"DHGHYYHmmGHduWRBGhptGYGm,c(LHMHGNmmRRRRJGSSnbSbSM-",
"DYGHHHmvmBHfu/QMbGzgJTRl*c(nnMLRHMMHJRLHGGGGHSbSpo",
"DHvbvve3dvkeq!RmbGbrmBmd*cElglmmnhhvmNmnlzbmmlbzqO",
"i<&:<<7;706=6i<-&:&&=:-=$9y,<<q8w77q7><:=--<<*-*oo",
"VFmDDW///^JSDFKmhjcjcxpp8sPEWIEI^~^^j9ZDcDFMcmcvci",
"~]/!Q!/ETTTTW!!!LLEY^JSm<ZWQQEEEEYmJzd/RDWQHJ!QQWu",
"U/GJRRHnGTHTYYmmGmmNJmbv-ZDcLLHmmSlmhu^JmJJGMRYHm,",
"~/YTHmnlHHHTYYHvcnGJEHGm>G^mBQRHNHmmgr/QnmYJYYYNl*",
"~!HHGJJmTHGHBNJmllbHEYHY4D'YHEEHYYSmhr/EmlYHYEYHl&",
"UEmYYYYTTGGYGvmTHNmvHYER0D/YJRMgzYmndq^EBBBYEEQEN*",
"P/YYGHYTDzbGNmmNNYYYHJRG4D/YRHh3hGGHdqRYYTYYEERTB2",
"FETbmHHHlrtgGSbbnJYYBGNb:S/EERnlmjmRlu/PLERRRHYBN3",
"FJGzMRBBmrrzGGlGGmYYMbzN3D'WLLMMHmNJlu(ERREERYYRR3",
"URGGRBBBmlhGTSgSSGRRHbGG3F_RcnmNBHGYld(LHHEBmHHHB2",
"UEmbBHHMmbSYTGghmGJMNHEH3xGHHMHYHHJRnu^QHHHBmHmMM2",
"Cnrrddrq0rrdr012qeuuedde-sDmDMBBHYRRneE!EERYYYnff*",
"ajhpjpuydurt0t0<<34<<70<;A!YJHBBNRRRlu/!EEEERYNnf:",
"P(JJ/QRLHT~T~^TTEWQQW^!L8FWHYRYMNRRYlu(!QYRRRmMYM:",
"~WNGJHGHmGHGGHTTHLLLLERB7xRJYBNNYYRRfd`!YHNYRBYER3",
"WENBBHNNGmggzmmGmNNNNGYM<lQHRRlnHHHYu4/EBHBnHBYRR3",
"~!BBYHNnmGbzbHHmzmHNHGYB,c!HMHMnmBMHdy(LBBHBBmYRB2",
"~/BYHHNvmmmklmbzzNBmNmNM,c!MnBLLHmmHfu`EYYYYYRYRm*",
"~WNMHMNmmmmvblq0gmNmmvnv-xHnnLHLEHYYfyWERBYEERQEm*",
"KRMnmNnNNGHHGzddvlzNNmMl#xKMmHLHRHEYfeLHBBEEEYRRn:",
"KEMlmYNHYYYGHHmknmmNnMHm-xWHMHLHmmmmuuLHBBRERRYBm:",
"PRNmHHBGNHNmGGmGNnbnmBGM4xWHLHMLMHLLee!EBBBERYBBc:",
"PQmnGYNNGHmvmbHYHmmnmBGm0c!HELHLLLLMe4!QYflBRmnBM,",
"cHmnlnfuzng3gmmnMMnddNNl:cEmnnfnnld,#;hng<7flfdfl:",
"8<**#*$$-<$#**&&*:&...&&X34&O@#--$@  %6$###%<-%$-#"
};
