/* XPM */
static char *player_s[] = {
/* columns rows colors chars-per-pixel */
"60 60 234 2 ",
"   c #040000",
".  c #0B0000",
"X  c #140000",
"o  c #1C0100",
"O  c #240200",
"+  c #2C0200",
"@  c #2D0A00",
"#  c #330200",
"$  c #3C0500",
"%  c #350C00",
"&  c #3C0A00",
"*  c #3A1502",
"=  c #291305",
"-  c #440300",
";  c #4C0300",
":  c #430B00",
">  c #4C0B00",
",  c #540300",
"<  c #5B0400",
"1  c #540C00",
"2  c #5A0C00",
"3  c #491501",
"4  c #5B1300",
"5  c #5C1C00",
"6  c #541500",
"7  c #640400",
"8  c #6B0500",
"9  c #630D00",
"0  c #6B0C00",
"q  c #740500",
"w  c #780A00",
"e  c #631300",
"r  c #6C1400",
"t  c #641A00",
"y  c #6C1B00",
"u  c #731300",
"i  c #7B1400",
"p  c #731C00",
"a  c #7B1C00",
"s  c #582505",
"d  c #4A2206",
"f  c #6B2200",
"g  c #662802",
"h  c #742400",
"j  c #7C2400",
"k  c #782D01",
"l  c #693407",
"z  c #783704",
"x  c #6A3D11",
"c  c #774718",
"v  c #7B410B",
"b  c #794D21",
"n  c #8B0B00",
"m  c #830A00",
"M  c #940C00",
"N  c #9C0E00",
"B  c #831400",
"V  c #831B00",
"C  c #8C1B00",
"Z  c #8C1400",
"A  c #951400",
"S  c #941C00",
"D  c #9A1700",
"F  c #A61A00",
"G  c #AC1300",
"H  c #832200",
"J  c #8B2300",
"K  c #852B00",
"L  c #8C2C00",
"P  c #942400",
"I  c #9C2400",
"U  c #9B2C00",
"Y  c #932A00",
"T  c #8C3401",
"R  c #863A02",
"E  c #943300",
"W  c #9B3300",
"Q  c #943B01",
"!  c #9B3B01",
"~  c #AB2400",
"^  c #A42C00",
"/  c #AB2B00",
"(  c #A32500",
")  c #B42D00",
"_  c #B92700",
"`  c #A33400",
"'  c #AB3300",
"]  c #A33B00",
"[  c #AC3C00",
"{  c #B43400",
"}  c #B23D00",
"|  c #BB3C00",
" . c #BA3400",
".. c #C52B00",
"X. c #C43200",
"o. c #C43C00",
"O. c #CB3A00",
"+. c #D33D00",
"@. c #D83700",
"#. c #D42F00",
"$. c #E43E00",
"%. c #884509",
"&. c #974705",
"*. c #955516",
"=. c #8D4F12",
"-. c #AD4B02",
";. c #A64602",
":. c #B34300",
">. c #BA4300",
",. c #B44C01",
"<. c #BC4C00",
"1. c #AA5508",
"2. c #BB5302",
"3. c #B75907",
"4. c #A65C14",
"5. c #BA600B",
"6. c #B06418",
"7. c #905923",
"8. c #AA6927",
"9. c #B7732F",
"0. c #9E642A",
"q. c #C34300",
"w. c #CB4300",
"e. c #C44B00",
"r. c #CC4B00",
"t. c #D44400",
"y. c #D44C00",
"u. c #DC4B00",
"i. c #DC4400",
"p. c #C45301",
"a. c #CC5400",
"s. c #C75B02",
"d. c #D55300",
"f. c #DB5400",
"g. c #D45B01",
"h. c #DC5B00",
"j. c #E34B00",
"k. c #EB4B00",
"l. c #E74400",
"z. c #F34D00",
"x. c #E45300",
"c. c #EC5400",
"v. c #E45B00",
"b. c #EB5C00",
"n. c #F45400",
"m. c #F45C00",
"M. c #FA5D00",
"N. c #F95500",
"B. c #CA6407",
"V. c #DB6301",
"C. c #D76A06",
"Z. c #DA720B",
"A. c #C66B12",
"S. c #CB7219",
"D. c #D87716",
"F. c #E46401",
"G. c #EC6400",
"H. c #E46C02",
"J. c #EC6C01",
"K. c #F36400",
"L. c #FB6300",
"P. c #F36C00",
"I. c #FC6B00",
"U. c #EC7504",
"Y. c #E87809",
"T. c #F47301",
"R. c #FD7300",
"E. c #F47B04",
"W. c #FC7C01",
"Q. c #F27E0B",
"!. c #E37C14",
"~. c #CA7C2E",
"^. c #ED830D",
"/. c #FD8402",
"(. c #FE8C02",
"). c #F4840B",
"_. c #FB8C0B",
"`. c #F68507",
"'. c #FE9303",
"]. c #FF9C04",
"[. c #FD940C",
"{. c #FE9D0C",
"}. c #EA8518",
"|. c #F58B15",
" X c #FE9B14",
".X c #FD9C1C",
"XX c #FB9415",
"oX c #FFA305",
"OX c #FFA30C",
"+X c #FFAB0C",
"@X c #FFAB05",
"#X c #FFB50B",
"$X c #FFA414",
"%X c #FFAB12",
"&X c #FEA41B",
"*X c #FFAB1B",
"=X c #FFB213",
"-X c #FFB31C",
";X c #FFBB1A",
":X c #D78839",
">X c #D58432",
",X c #EA8C26",
"<X c #F99A26",
"1X c #EE9632",
"2X c #FFAC24",
"3X c #FEAB2B",
"4X c #FDA326",
"5X c #FFB423",
"6X c #FFBB25",
"7X c #FFBB2A",
"8X c #FFB42B",
"9X c #FBA835",
"0X c #FFBC34",
"qX c #FEB736",
"wX c #FFC51B",
"eX c #FFCB17",
"rX c #FFC423",
"tX c #FFC32B",
"yX c #FFCB28",
"uX c #FFD52A",
"iX c #FFC334",
"pX c #FFC43A",
"aX c #FFCC36",
"sX c #FFD333",
"dX c #FFD839",
"fX c #FFE43B",
"gX c #FEB845",
"hX c #F5A645",
"jX c #D98F42",
"kX c #FFC745",
"lX c #FFD848",
"zX c #FFD752",
"xX c #FFCB56",
"cX c #FFE444",
/* pixels */
"].U.>.[ ;.] Y , # # 8 q 7 8 n D _ t.O.y.x.T.W.T.W.(.(.U.H.R.m.x.W./.R.I.W.(.T.T.^.A.1.4.3.e.P.'.].(.(.(./.&X2X-X6X%X*X-X",
"/.a.<.,.Y 2 , - O X + , 8 w D F ~ ) X.) +.K.J.f.P._.XX|.Q.J.m.b.I.W.W.W.R.I.G.s.B.1.1.=.B.v.I.'.oX'.@X%X[.(.%X-X2X4X*X X",
"h.^ p.2.e - ; - > 1 $ 2 w B X.u.| C C B { f.v.F.W. X&X3X<XU.y.u.M.I.W.I.I.K.y.' ,.3.5.6.}.[.{.OX].].].%X'./.oX=X2X0XXX`.",
"} Y :.;.H H r e r U ` ' A U e.h.-.0 ; , w ( w.d.J.[.7X8X<XQ.t.l.N.m.K.u.+...~ ) V.C.C.Z.).$X;XOX(.W./.{.'.(.OXrXtXqX|.U.",
"U P ' <.<.| >.e.U [ h.h.W p K -.Q 1 < ; ; q  .t.F.$XiXkX9X`.I.M.k.j.r.P A F M t.T.'.{.XX'.+X%X]./.P.(.+XoX].+XuXdXiX|.Z.",
"[ W >.<.,.} | J.E.H.E.,.p t 4 k z r 8 u 4 u I q.F.OXdXaX*X].(.W.L.K.a.;.` { o.m.P.'.#X=X].].@X+X].[.OXwX;X+XwXrXtX8X|.s.",
"2.p.a.:.` Y Y a.^.Z.3.T 6 h f k R R y R -.! [ w.R.(.rXaX-XOXoX(.(.R.V.3.s.F.F.b.v.'.'.'.'.'.'.OX#X;XyXdXuXeXeXrX6X*X).V.",
",X^.s.] U j V [ B.1.&.R z Q z %.&.1.%.*.D.2.Y ` U.$X=X;X&X{.].W.'.E.B.&.,.F.f.r.x.(.W.L.I.R.R.'.;XuXuXfXuXeXuXrX*X$X XY.",
"1X!.2.a 9 V C E %.R R z l z v =.1.6.*.9.,XS.! ' V.<X&X XXXOX/.I.W.W.J.s.2.v.f.y.m.R.R.N.N.L.R.@XeXuXuXfXsXwX6X6X7X*X5X.X",
"<X}.A.h ; 7 9 u y g g g d g l &.=.*.8.~.1XD.C.Z.s.Q._.[.[.`././.G.b.f.} ' u.W.W.I.I.I.L.I.R./.#X#XeXeXwX#X+X$XtXyXtXiXqX",
"9X,X3.4 o O O > 6 5 g *.c v l x =.*.8.~.>X6.S.~.~.D.|.XXXXW._.XXU.{ S D ( | F.R.L.L.I.I.L.I.W.`.{.].@XoX].{.$XyXuXsXpXkX",
"8X|.s.p # + X o $ l *.0.0.=.l x =.8.9.:XjX~.~.jXjX:X,X<XXX[.|.Y.2.J 7 8 ^ W ' i.n.m.K.j.....y.g.Z.OX+X%X$X X{.*XrXtXpXpX",
"5X/.g.i $ # O + 4 &.=.b b b c 7.*.0.>XjX:X~.8.8.9.:XS.5.5.D.,X3.&.: + # 9 p S O.k.b.f.( q , C ,.Y.[.*X%X_.XXY.&X7X8XkXdX",
"%X(.F.C 2 2 > f Q ;.%.x l b b =.%.%.9.~.~.~.0.x 7.9.6.=.z %.6.6.&.3 o # 2 2 u /  .q.r.` 0 , 9 ` p.`.[.T.V.).`.|.&XXX&X5X",
"T.V.W K j H H W a t g g s d d d g T A.}.~.~.4.&.4.*.*.=.=.c *.=.5 $ o O e J W ( B a E T ' a e &.Z.).[.J.V.).W.J.W./._.(.",
"a.Q h T :.q.o.{ u < u f 3 O o O > k 1.!.<X,X1.j j k s c c c l s $ o X + 1 T ;.` V E ] W ] ` Q A.}.).Y.B.U./.W./.W.I.P.P.",
"] y 6 Q g.F.o. .D n 9 - + # : & $ f 1.S.,X}.-.e + O * = = * * * o o O o : f R T T L W U a a E A.|.!.D.Z.P.I.I.W.W.m.P.J.",
"E h 4 T Z.s.I S q < $ X . O # + 6 &.5.5.3.<.] 4 X . o o X * * = o & 6 % : : h T k j U | | I E 2.S.}.<X.XP.c.b.M.L.L.W.J.",
":.W E 2.S.2.J < + o o     O O - K ;.s.B.-.! T : X     . X @ 3 * % g h 5 s 1 y > p ] d.b.b.u.>.<.Z.4X3X$X_.E.T.K.x.f.d.r.",
"! <.2.&.;.1.k - X     o o + - y ,.:.;.-.! L K 3 .     . X X * 6 g z t 4 t p 6 + 1 ] d.P.W.I.G.h.`.*X8X*X{.&X).E.d.P u e ",
"H :.&.k k R s X     . - < ; 2 [ g.2.E ] Q &.R O         o O 3 5 g t > y y e 1 > t Q h.W./.M.L./.{.%X2X7X&XXX_.T.F.} r y ",
"y i j h 3 3 & X .   . $ i 0 i d.g.<.j j W Q f O       . . o + + & 5 h f f t 6 f ! B.`.oX{.R.W.%XrX=X8XiX7X<X_.P.d.U K L ",
"R j t : % O * % # % O > r y a <.K h p p P W y & % + X + X . o o o > R R k t - 6 ! |. XOXOX].OX;XyXwXtXtX5X&X.XU.>.>.;.! ",
"%.h > $ * @ 3 d & f y f h K H L W a e 0 S L j e 5 3 + : & . . o O % l &.g > > g &.D.,X_./.OXoX{.;XyXyXsXiX*X.XY.p.s.C.1.",
"=.k 6 : O o @ % s ;.2.&.&.Q :.[ :.:.J 8 B i 0 e % O + # 1 o X O X O l v k s 6 k 2.D.}.).'.'.(.].%X;XsXfXdXiX4X.X^.Y.D.S.",
"A.&.f O   X o @ v A.S.&.1.3.Z.s.,.p.V , A A 0 , O O 6 6 3 + o X o 3 z z R 1.&.-.B._.^.`.'.(.(.].OX=XrXiXaXkXqX9X9X<X,X}.",
"3.Q 1 X     o s *.Z.Z.1.;.A.|.Z.s.<.Y w A Z i p 9 y &.*.g : . . * v z R R 1.2.B.H.E.U.).[.oX@XoX(.'.OX;X6XiXzXxXgX0X3XY.",
"&.! 9 - O o 6 &.B.U.U.Q.Y.,X<XC.g.a.{ m q 8 C / ( J R 4.%.s @ o * l k K h R Q 1.H.W.H.J.W.'.@X].(.].oX@X-XiXzXlXpXiX8XD.",
"1.-.9 - - # 1 W C.H.F._.&X<XY.V.g.:.L 8 7 q J ( ' a y j &.%.6 % % % * > , p Q 2.V.^.`.b.K./.(.I.R.@XoXOX5X8XkXxXkXkXiX}.",
"Z.2.e ; e 4 0 K E e.r.|.<X.X3.<.<.T 4 # 9 a u y y f 5 k k g 3 3 O . X o 6 W 2.B.s.p.W.P.L.W.I.l.m.(.(.'..XqXgXxXzXlXaX&X",
"Z.3.j K K y y a J I e.V.C.}.s.>.K r 1 > - 4 ; + & g l k 5 % & - + O o # j ;.5.3.] ! v.R.K.k.k.l.n.m.m.W.&XgXgXxXzXlX8X_.",
"Q.B.E J H ; > p a ' F.C.B.Z.H.g.Q y , ; O @ ; % % s %.%.g k z g : + + , p t t h j W J.I.c.O.O.+.n.N.m.E.*XgXgXhXkXgX0X4X",
" X`.e.U J 9 ; 8 w / H..X|.!.Y.T.2.Y B r 1 # # 5 k 5.S.4.%.z &.%.3 X o 2 P , ; u Y e.K.L.j.x.l.O.+.l.J.OXOX_.9XgX0XaXpX0X",
"{.(.b.' u - , w m H F._.^.!.XX/.H.r.} I / U V L ;.Z.!.9.*.&.&.R > X . ; B 2 0 V C | f.v.u.t.i.O.f.b.T.$X{.&X9XpXyXuXsXtX",
"/.R.m.X.w < - , 7 i g.H.J.Y._.W.P.P.G.O.O.+.| { <.a.H.B.=.%.=.z : o + , 7 , B J i V U ^ >.>.i.$.K./._.U.}.qXpXdXuXfXcXuX",
"=X[.R.b. .H 9 ; 0 i U e.v.J.W.P.x.m.L.K.L.m.x.o.v.J.B.&.z s s 3 % $ ; w n C J J J E -.K E e.m.M.G.h.H.C.Z.9XdXcXfXuXuXuX",
"uXrX].W.v.` i y Y H C ( w.| h.P.n.N.z.z.k.z.L.c.P.H.p.5 3 5 6 : y 9 < Z C J W K W ,.Z.3.-.C./.W.d.o.v.E.}.qXdXcXfXuXuXeX",
"uXrX=X(.f.| J W ] J S m i B / F.R.z.$.$...$.N.N.x.:.Q 4 o & e a u i a J W a j h 1.S.!.Y.a.Y.E./.G.t.v.(.4XpXkXaXcXfXfXdX",
"rX6X XE.q.' ( ^ |  .F 8 - 1 S y.m.l.l.l.@.l.n.z.t.^ j 4 : # - r V H E <.2.k h R 0.~.D.!.Y.C.a.U.T.u.b.(.wXaXaXiXcXcXcXsX",
"%X XU.a.( I q.I F F D 8 8 8 P  .@.z.M.I.M.z.z.l.x.<.y ; 9 2 ; V U T ,.!.Z.A.S.8.9.~.>X,X|.U.H.U.P.R.I.W.OXtX8XtXsXdXsX6X",
"Q.d.e.>.{ O.u./ w m q m D A S S  .j.m.R.L.k.c.+.t.h.} 1 + > ; Z ( p.H.H.D.9X1X:X~.jXhX9X|./.W.R.P.W.W.F.T.%X-X7XrXaXrX*X",
"<.} r.F.t.+.w.) M q 7 N M n S A S | x.m.m.K.M.@.j.K.g.K - < < q Z o.T.U.!.9XhXjX9.1XgX9X<X(.W.W.W.W.F.f.F. XtXtX6X7X6X&X",
"e.q.e.e.w.{ F A m 7 7 n M D ~ D 0 P x.c.u.v.n.l.K./.h.2.` S m n F X.G.'. X4XjX9.8.hXgX4X<X.XXX'.W.J.V.J._. X4X5X*X&X&XY.",
"s.r.e.[ ' ) m q q , , < 8 M _ N , 0 ^ o.y.h.x.c.I./.W.Y.H.a.~ ( ( ( y./.(.|.,X~.~.<X<XXX.X8X3X XE.b.C.XX{.XX4X&X$X|.U.s.",
"e.w.q.J w D 7 ; - - ; ; 7 N G n 8 0 Q 3.V.H.a.q.G./.[._.W.J.d.f.| a ^ G.T.U.}.>X1X<XXX4X7XtX9X|.).V.3.^.OX4X}.!.Y.U.H.a.",
"r.o.| P A N 7 # o O ; q M N m 7 , p 3.|.^.C.p.p.e.a.E.].'.W.P.J.q.i Y y.y.d.).XX2X.X.XtXsXsX2X3X4X|.|._.[.|.D.!.h.F.h.a.",
"e.r.' ~ _ G w - X X , M N N w 7 - y B..XY.Y.C.2.-.W E.@XoXT.F.V.U i P r.q.d.`.W.(.OX$X=XuXfXiX8XqX2X4X X X<XD.Z.E.T.T.G.",
"e.p.U ^ .._ M 8 - O 8 G N M m 7 ; e >.Y.D.|.Z.B.[ >.U.(.(.K.x.d.{ ` U | ^ ^ a.K.(.OX+X+XsXfXlX7X3X0XqX4X4X<X|.Q.Q.(.(.g.",
"a.[ Y ) ~ F n q $ # w ) ~ D n q 8 0 ! 2.C.Y.Z.U.g.F.T.(./.N.i.~ ( ' H p 0 u ' r.U.+XoX=XyXuXsXyXrXaX0X3X9X3X&X^.C.(.E.C.",
",.:./ ~ ~ F M w < 7 I O./ D n q i ~ y.H._.).U._././.(.'./.L...F S V V e ; < a ` <.V.W.OXwXuXdX6X-X*X.X3XqX0X$XZ.C.E.Q.^.",
"s.F.f.o.X.{ ) N n G @.+.O.~ M D O.b.W.(.(.R.H.W.W.W.'.(.W.N._ D ( a r > - - < L T ;.U.$X;XyXtX5X*X XD.}.7XaX3X,XZ.U.H.s.",
"g.>.<.q.w.r.{ ( _ @.i.+.X.~ F O.@.R./.'.W.b.G.I./.(.W./.R.k.O.~ ~ C q > - ; r [ -.3.H.[.&X&X*X;X6XOX(.'.2XiXtXaX XZ.V.p.",
"e.| { ^ | f.) ( j.L.m.@._ X.m.L.I.I.I.W.R.R./.(.]./.I.R.R.M.$._ F F w # > H } >.s.}.}.[.W.F.E.+X#X].'.@X-X6XaXaX5X_.Q.g.",
"b.t.X. .d.x.w.( f.I.l.O._ O.m.R.(.R.M.R./.(.(.].].W.R.R.(./.n...X. .m # : h s.T.U.).<X4X_.K.G.W.'.(./.(.#X6XrXaX6X].(.W.",
"R.v.u.y.r.y.O.P o.k.@.#.#.l.c.R.R.W.I.I.].@X@X(.W.I.W.(.(.(./.L.L.t.q # e ! J./.`.E._.XX/.x.+.t.P./.R./.@X#X;XlXsX;X[.(.",
"E.d.d.P.b.u. .I X.+.#.@.$.l.N.R.R.I.I.R.].#X@X@X(./.'.].W./.(.(.(.v.U r U h.T.C.<.p.V.v.x.+.O.j.c.c.m.m.K.(.;XdXlXsX6X%X",
").s.H./.I.K.b.{ ..#.#.z.n.z.N.N.L.N.I.R./.oX@XeX@X].].'.R.W.J.T.T.b.q.` | U.).D.:.U >.r.w.w.j.N.l...O.j.G.'.+X6XlXlXzXiX",
"|.Y.F.W.P.r.f.X.#.@.$.k.k.N.N.N.I.W.M.N.R.'.#X#X#X#X].@X'.`.g.e.[ | [ [ >.P.).!.B.d.} [ [ { i.j.+.) ) t.f.E.%X6XkXzXxX9X",
",XY.g.d.f.q./ _ ....#.#...@.l.i.I./.F.+.c.R.].@X#X#XoXoXOX].E.C.a.{  .w.U.OX&X.X|.H.-.T k U +.+.+. ./ u.v.G.).7X0XkX9X1X",
"_.Y.:.:.' o.{ i n N N G G F ) ~ t.P.J.O.K.R.(.].OX@X].'.|._./.R.L.c.c.L.].].'.$XXXS.&.R T ` t.x.m.f.y.G.K.W.XX6X7X5X<X<X"
};
