/* XPM */
static char *wall[] = {
/* columns rows colors chars-per-pixel */
"50 50 214 2 ",
"   c #4A260F",
".  c #4E280E",
"X  c #47250F",
"o  c #542B0D",
"O  c #5B2E0C",
"+  c #5E310D",
"@  c #4A2710",
"#  c #4D2B13",
"$  c #472B1C",
"%  c #542D12",
"&  c #542F17",
"*  c #5D3214",
"=  c #5D3418",
"-  c #64340E",
";  c #69360E",
":  c #6E3B0E",
">  c #67390F",
",  c #703A0F",
"<  c #643513",
"1  c #6A3613",
"2  c #663915",
"3  c #6D3A13",
"4  c #663618",
"5  c #663819",
"6  c #6C3B1A",
"7  c #743C14",
"8  c #793D16",
"9  c #733E1A",
"0  c #793E19",
"q  c #46312E",
"w  c #4A332F",
"e  c #4E3633",
"r  c #4F3836",
"t  c #543935",
"y  c #5A3C35",
"u  c #543C3A",
"i  c #5B3E3A",
"p  c #523733",
"a  c #603F38",
"s  c #72400F",
"d  c #754115",
"f  c #7C4314",
"g  c #7F4816",
"h  c #75411C",
"j  c #7A431A",
"k  c #5E413C",
"l  c #744423",
"z  c #614137",
"x  c #63433D",
"c  c #69463C",
"v  c #5E4341",
"b  c #634542",
"n  c #694740",
"m  c #654847",
"M  c #6C4B44",
"N  c #664949",
"B  c #6B4D4A",
"V  c #704D46",
"C  c #714F49",
"Z  c #6F5049",
"A  c #73514D",
"S  c #79524A",
"D  c #745453",
"F  c #795654",
"G  c #7D5956",
"H  c #7D5A5A",
"J  c #785759",
"K  c #824514",
"L  c #854A15",
"P  c #8A4D15",
"I  c #80461A",
"U  c #8C4B1B",
"Y  c #854B1D",
"T  c #984E14",
"R  c #934D1C",
"E  c #974E17",
"W  c #955316",
"Q  c #9B5414",
"!  c #9E5914",
"~  c #96541B",
"^  c #9C551C",
"/  c #9E581B",
"(  c #A15716",
")  c #A25B14",
"_  c #A1561D",
"`  c #A35A1C",
"'  c #A85D1F",
"]  c #A95F14",
"[  c #AB621D",
"{  c #AB6116",
"}  c #B1671F",
"|  c #924F21",
" . c #945124",
".. c #9C5423",
"X. c #9E5B23",
"o. c #995A2A",
"O. c #9C5E32",
"+. c #945A34",
"@. c #8B5121",
"#. c #A15723",
"$. c #A55C22",
"%. c #AA5E22",
"&. c #A25D29",
"*. c #A95E2A",
"=. c #A35F3B",
"-. c #9B623A",
";. c #AC6223",
":. c #AF6826",
">. c #A4612B",
",. c #AB632A",
"<. c #A9642A",
"1. c #B16522",
"2. c #B46923",
"3. c #B96D22",
"4. c #B4692B",
"5. c #B96D29",
"6. c #B0652A",
"7. c #BD7122",
"8. c #BD7028",
"9. c #A26331",
"0. c #AC663A",
"q. c #AD6C3B",
"w. c #AC6736",
"e. c #B66E35",
"r. c #B46B3D",
"t. c #B96E3C",
"y. c #B86B35",
"u. c #B57236",
"i. c #BB7335",
"p. c #B4713C",
"a. c #BC743B",
"s. c #BF7839",
"d. c #C17536",
"f. c #C3743C",
"g. c #C8763C",
"h. c #C47A3B",
"j. c #C77B3A",
"k. c #835E5C",
"l. c #845E55",
"z. c #87605D",
"x. c #91675D",
"c. c #AC6B43",
"v. c #AA6542",
"b. c #B46B43",
"n. c #BA6E44",
"m. c #B56E49",
"M. c #BA6F48",
"N. c #AE7040",
"B. c #B57243",
"V. c #BD7343",
"C. c #BF7843",
"Z. c #B5714B",
"A. c #BC734A",
"S. c #BB7A5D",
"D. c #B77753",
"F. c #815D60",
"G. c #866162",
"H. c #8A6462",
"J. c #8D6867",
"K. c #916765",
"L. c #916A67",
"P. c #9A6C68",
"I. c #9D7170",
"U. c #AC746A",
"Y. c #A9736A",
"T. c #B37562",
"R. c #BC7C64",
"E. c #B1766B",
"W. c #B47A6D",
"Q. c #BC7D6B",
"!. c #B67864",
"~. c #AE7874",
"^. c #AA7672",
"/. c #B37A74",
"(. c #BA7D73",
"). c #B27C79",
"_. c #BA7E78",
"`. c #B17770",
"'. c #C37543",
"]. c #C57A44",
"[. c #C97C45",
"{. c #C47649",
"}. c #C3794B",
"|. c #CA7C4A",
" X c #C37C5A",
".X c #C17E6A",
"XX c #C37C63",
"oX c #BD816D",
"OX c #BE8274",
"+X c #BD827A",
"@X c #CD8143",
"#X c #CC804B",
"$X c #D18342",
"%X c #D3834B",
"&X c #CD8151",
"*X c #C28167",
"=X c #C3836D",
"-X c #C9846E",
";X c #CB8B6E",
":X c #C38474",
">X c #CA8673",
",X c #C58974",
"<X c #CA8A74",
"1X c #C4857B",
"2X c #C9877A",
"3X c #C6897C",
"4X c #CB8B7C",
"5X c #D18E7D",
"6X c #CE907A",
"7X c #D3947C",
"8X c #C68980",
"9X c #CD8D81",
"0X c #D08E80",
"qX c #D19081",
/* pixels */
"G.k.J F F k.G F F l.F l.k.D F C F G D G H J D k.l.G F k.k.F.K.K.K.K.J.H.K.k.k.z.H.k.J F A D F F H k.",
".X=X.X:X:X>X>X>X>X-X-X.X.X.X.XXX.X>X.X.X.X>X.X>X.X.XXX.X.X>X>X>X<X<X>X>X>XR.!.R..XR.R.R.Q.Q.Q.Q.(..X",
"b.b.n.n.V.n.'.'.n.n.n.r.b.n.'.n.n.{.M.m.b.n.n.V.{.{.n.M.A.C.'.'.C.A.B.s.V.q.0.t.y.t.r.t.n.t.r.c.b.b.",
"R Y U R U R ..E .. .E U R R E ..^ | | | ^ #._ ^ #.*.#.#.X.&.%.*.o.o.o.X.` ^ P W Q Q / / ~  . . .| R ",
"  X   % % % # % & & % @   % * 4 < * < + + * < - * 2 * * = 5 2 = = = $ = > + # & % % # # # $ # # @ X ",
"J J D k.k.H F.F.G.G.F.J v D H z.k.k.k.k.k.F.z.k.H J D J G.J.H.H.J.H.H.H H F F H F D k.k.H k.J G.G.z.",
".X8X.X0X2X>X8X8X_.Q.(.P.x.~.OXOX.X>X-X-X:X>X<X>X>XoXOXOX,X<X<X,XOXOX;XoXoXoXoXoX=X=X>X<X=X>X<X,X<X<X",
"n.n.'.'.t.n.n.b.b.c.0.+.O.q.p.c.m.c.a.a.a.a.f.t.r.r.q.p.u.p.a.a.u.u.q.q.u.s.u.u.a.a.p.p.a.i.i.5.u.r.",
"( T ( ( ^ E R E U U U K K Q Q W Y @.~ ! ) W W P ~ / o.~ W X./ ;.W W ~ @.X.! W ! ! ~ ~ W { ! W ! Q ~ ",
"- O o o . @   . . % o o o O < - = = = s s = s s h d s s s s 2 2 = 2 > 2 2 s s s > + + % O O O + + - ",
"B D B B N B A B B D G G k.k.k.x.z.J.L.J.J.H J.J.I.L.L.J.L.J.F N Z D F D Z A F Z Z B N k r M Z A D D ",
"8X.X8X.X,X2X2X>X.X>X2X2X6X7X6X7X7X7XqX7XqX6X,X6X6X6X6X6X6X6XOXOXOX6X;X,XOXoXoX6XOXOXoXoXOXOX,X<X3X6X",
"c.0.0.r.t.t.r.r.v.0.w.0.y.d.i.e.u.u.s.s.s.s.s.s.s.s.u.u.u.s.p.N.@Xs.u.s.s.s.s.u.s.u.u.q.u.p.p.q.q.q.",
"Q T T ( ( ^ ^ R E E T E T T ( ( ! ) ! ] ) ! ) ) ) { ) ) { { ) @.+.o.) ! / ! ! ! ! ! W W ( ! Q Q Q ! ",
"- - - - - O 1 1 - - - o O o O O + + o O > > s + + + * s s > s # $ $ * * * + + + + O + + ; - O O o . ",
"x b N M N N m b N m k u u t r i k k k k x N b m v x B Z N N m v k k k B Z Z D Z Z B B Z N m k b k k ",
"7X6X9X4X4X9X9X4X3X2X5XqX4X,X,X4X+X+X8X3X9X9X3X1XOX1X<X9X3X1XOX<X:X,X,X+X6X6X<X3X2X:X+X3X4X2X:X,X,X,X",
"'.].B.p.].].].'.B.C.'.f.].].'.{.#XN.B.Z.V.n.b.c.b.B.n.A.Z.Z.B.C.C.p.V.{.C.V.c.m.C.C.b.Z.{.'.a.C.C.f.",
"_ ( ( ) [ { ) / ! ( ( ( ` ` ^ ^ / / X.` ` _ ^ / R ^ / ^ X.` X.[ ` ` ` ` ` ^ ~ ^ $.( ^ ^ _ ' $._ / _ ",
"; ; : : f , > 7 f 7 7 K f 7 1 : , 7 7 , 7 1 1 < 3 3 ; ; ; > 3 > : 7 7 ; 3 1 3 ; 3 7 3 3 7 9 1 1 7 , ",
"i t t t t y x B S S A V b i k i y i b i i i i k c m k k u i i y p w w y x z z i z M M c V M M M n y ",
"oXoXOXOX(.OX+X3X4X4X2X1X/./.W.oX(.(..X(.(.(.Q.W.oX,X,XOX,X>X:X=XoXoX=XoXoXQ.Q.R.*X<X>X,X>X,X>X:X_.`.",
"].].{.C.Z.'.].'.[.$X|.{.'.'.'.].{.'.n.'.'.n.{.@X@X@X@XC.#X$X$X$X@X@X].[.f.f.f.[.[.[.f.].'.'.f.'.n.{.",
";.2.;.<.,.2.1.2.3.} } ' >.&.;.3.3.2.} 1.1.1.2.8.7.7.3.} } } 7.7.1.:.9.<.5.2.2.} } } 2.} } 1.2.1.%.%.",
"L L Y g j 6 d f f f 7 : < 2 : , f 7 7 f 0 1 0 0 s 2 3 7 f f g L 0 0 6 9 I I I Y L L K K f 7 7 8 7 f ",
"z z b b u u t e q q q q q q e q w e e e r u m v r k i i b x z k m v v v N m B B N b x a b i i a k i ",
"_.+X+X+X+X+X~.).^.~.^.`.~.Y.~.`.~.~.~.).)._._.+XOX_._._./.).(._.+X+X+X.X_..X+X_.Q./././.(.(.(.E.E.(.",
"'.}.D.}.A.A.A.A.}.A.A.{.V.Z.Z.n.A.B.m.Z.m.m.m.{.B.Z.Z.n.M.n.A.Z.{.{.{.|.{.'.M.M.b.{.{.'.n.b.b.'.A.'.",
"$.;.;.;.:.:.;.;.1.%.%.$.#.$.*.*.*.$.$.$.#......... .....#...#.$.#.*.#.#.#...#.#.*.$.$.#... .#.*.*.$.",
"3 7 7 f f d d 7 7 7 , 3 1 - 1 1 7 7 7 7 1 1 0 1 1 1 1 < 1 1 < * 4 1 1 1 1 * < 4 9 7 1 1 6 9 9 6 9 9 ",
"k y y y z k i t u u t t t t v v r u a v v n M m B A C C C C M B A B B N N u r u u b n v y k b b x y ",
"oXoXOXOXOXOX:X+X1X>X:X>X2X4X0X.X_._.9X1X+X2X5X9X9X9X9X9X9X2X8X9X2X8X1X+X_.^.Y.`.`..X.X_.E.U.Y.U.E.!.",
"{.].}.[.[.#X X}.|.|.#X%X%X%X%X[.|.&X%X|.|.|.[.|.|.|.'.{.[.'.|.|.[.[.{.M.M.=.v.b.M.M.b.r.r.v.b.'.n.'.",
";.;.:.3.8.5.<.<.2.5.3.} 2.2.3.5.5.4.y.4.%.2.2.;.$.;.1.%.%.%.%.1.1.*.*.....U | ........| | ..*.%.*.;.",
"f d L L P R j I P W P P P P P L P j 9 K K 8 K 7 7 K K K K f 7 f I 0 8 8 9 1 4 1 4 4 < < 4 4 8 8 0 I ",
"z x k z c M b b c V V c x c x z x x b b z b z x a a a V M c c c n b n a i i p e r e p u i r t y y y ",
"(.OX_.(.:X:X.X_.OX2X<X>XOX(.oX>X3X_.+X+X_.:X+X1X1X(.1X:XOX:X1X:X.X.X1X_..X_.E.!.E.E.E.`.`.E.U.E.E.E.",
"[.}.|.|.|.{.'.|.[.|.].'.].'.|.}.].{.A.A.{.}.}.'.{.{.}.}.A.}.].V.{.{.V.'.'.n.n.'.t.n.V.V.{.{.t.'.|.'.",
"2.:.;.;.*.$.*.,.6.,.*.%.%.1.1.;.$.$.X.*.%.;.%.o.O.+.-.+.>.;.;.;.*.1.%.1.%.*.;.*.;.%.$.;.%.1.%.$.;.1.",
"d 0 3 7 8 3 3 9 9 8 8 I j j f f f j 0 K L f j 9 l 5 6 6 6 8 7 6 0 j f f 0 8 f f 7 7 7 f 0 8 8 f d 0 ",
"z z a b b m v b b c c c c c c Z M M M M c V V M D D n C M C V N N b n n b x y t p t y a y e y a y y ",
"Q.(.(.:X1X8X8X8X9X4X<X,X,X=X<X<X1X,X<X+X1X<X2X:X1X.X.X.X>X,X>X-X.X(.XX X(.!.R.S.!.S.S.XXR.T.T.S.T.!.",
"'.'.].A.A.A.D.D.S.}.%X@X@X@X@X@X].|.[.[.[.[.g.h.'.|.[.'.'.].].g.'.'.f.].f.f.f.f.g.f.g.g.g.g.f.t.a.f.",
";.;.<.-.9.9.-.>.<.:.:.:.:.:.4.<.:.:.<.6.,.6.6.6.1.%.1.1.1.1.1.;.%.%.%.*.%.%.[ $.$.[ %.[ ' %.;.%.%.%.",
"6 0 j 7 9 l l 7 s d d f f d d h j j j h h j 9 j 0 8 0 I L j K g j 8 8 9 2 < 5 6 7 7 7 f 8 8 8 7 7 j ",
"k z c i i a x b m b b n M M M V n b B Z B C N b V V C G z.F F z.l.l.F F F A A A A A Z M V M V V c n ",
"R.XX*X*X.X.XQ.oX=XoXQ.W.W.R.oXoX.X=X-X:XoXOX,X:X,X,X>X,X4X>X>X>X>X>X:X>X;XoXoXoXoX*X*XR.R.oX*X*XXXS.",
"d.d.f.g.f.a.y.e.t.r.y.t.a.a.a.i.t.f.a.a.h.j.h.h.].].h.j.h.h.a.V.f.a.h.h.a.d.j.j.j.j.h.j.j.j.d.i.d.d.",
"#...#...........#.R .._ $.%.$._ ' %.$.%.%.' ' } %.[ [ ' ' ;.' ` ( ;.%.;.[ ;.[ ;.[ [ [ ;.{ [ ` / / ;.",
"7 7 7 1 7 7 0 8 8 7 8 8 8 7 1 1 8 8 8 8 8 8 7 8 8 8 K f f K 7 8 7 f f f d d 6 d d f d 7 7 d 7 1 4 3 "
};
