/* XPM */
static char *wall_s[] = {
/* columns rows colors chars-per-pixel */
"60 60 238 2 ",
"   c #391C09",
".  c #2B1E1C",
"X  c #361F10",
"o  c #3D210D",
"O  c #392318",
"+  c #2E201E",
"@  c #342523",
"#  c #3C2926",
"$  c #3C2B2B",
"%  c #372725",
"&  c #362829",
"*  c #421F08",
"=  c #43220C",
"-  c #4C250B",
";  c #4A2408",
":  c #542B0B",
">  c #5B2C0B",
",  c #532808",
"<  c #5D320D",
"1  c #4A2812",
"2  c #582D11",
"3  c #5C3114",
"4  c #622F0C",
"5  c #65330C",
"6  c #6A340E",
"7  c #6C390D",
"8  c #67380C",
"9  c #733B0E",
"0  c #793D0D",
"q  c #643313",
"w  c #6A3512",
"e  c #6D3A13",
"r  c #6E3B1A",
"t  c #653718",
"y  c #713613",
"u  c #733B13",
"i  c #7A3E13",
"p  c #743D1A",
"a  c #622F11",
"s  c #422C26",
"d  c #432E2B",
"f  c #46312E",
"g  c #4B322D",
"h  c #4B3127",
"j  c #51362D",
"k  c #453333",
"l  c #4B3533",
"z  c #4C393B",
"x  c #4D3838",
"c  c #513732",
"v  c #533934",
"b  c #533C3C",
"n  c #5A3E3A",
"m  c #593C34",
"M  c #79420E",
"N  c #764113",
"B  c #7C4212",
"V  c #7A431A",
"C  c #5B413D",
"Z  c #59413B",
"A  c #62433D",
"S  c #764928",
"D  c #553F40",
"F  c #564142",
"G  c #5C4344",
"H  c #5C474A",
"J  c #624645",
"K  c #64494B",
"L  c #6A4D4C",
"P  c #634847",
"I  c #694E52",
"U  c #6C5154",
"Y  c #725455",
"T  c #735559",
"R  c #7B5A5B",
"E  c #77595A",
"W  c #75544B",
"Q  c #7D5D61",
"!  c #7F6065",
"~  c #84440F",
"^  c #944B0E",
"/  c #9A540E",
"(  c #96530E",
")  c #844414",
"_  c #844912",
"`  c #8C4C13",
"'  c #8C4B1C",
"]  c #8A4516",
"[  c #944C14",
"{  c #944D1D",
"}  c #974D14",
"|  c #8F5115",
" . c #955213",
".. c #9B5314",
"X. c #96511B",
"o. c #9B541B",
"O. c #9D591C",
"+. c #9E5811",
"@. c #A2561C",
"#. c #A35B1D",
"$. c #A95D1D",
"%. c #A45A12",
"&. c #A55B0F",
"*. c #AC631D",
"=. c #AA631B",
"-. c #B1651D",
";. c #B56A1D",
":. c #B96C1D",
">. c #894B21",
",. c #954E21",
"<. c #9B5422",
"1. c #985826",
"2. c #965D34",
"3. c #89562F",
"4. c #A45C22",
"5. c #AA5E23",
"6. c #A45C2A",
"7. c #A85C2A",
"8. c #A45E33",
"9. c #9C6130",
"0. c #AB6424",
"q. c #A5612A",
"w. c #AD632B",
"e. c #A76327",
"r. c #B26524",
"t. c #B36A23",
"y. c #BA6D25",
"u. c #B2662C",
"i. c #B46A2B",
"p. c #BB6D2C",
"a. c #B86729",
"s. c #BD7125",
"d. c #BE712C",
"f. c #AC6333",
"g. c #AA6736",
"h. c #B26533",
"j. c #B46A32",
"k. c #BB6D31",
"l. c #B56D3A",
"z. c #BD7233",
"x. c #B8733C",
"c. c #C06E2D",
"v. c #C2732C",
"b. c #C6772B",
"n. c #C37432",
"m. c #C87934",
"M. c #C26F31",
"N. c #815C5D",
"B. c #905F45",
"V. c #9A6251",
"C. c #A76D4A",
"Z. c #BC754C",
"A. c #BB7749",
"S. c #AD7253",
"D. c #BC7453",
"F. c #BC7C54",
"G. c #BC7A5C",
"H. c #B77758",
"J. c #B26F4E",
"K. c #825F61",
"L. c #846364",
"P. c #986F73",
"I. c #AA736B",
"U. c #BC7A63",
"Y. c #B67969",
"T. c #AB7674",
"R. c #AB797C",
"E. c #A77777",
"W. c #B47C74",
"Q. c #B37E7C",
"!. c #BA7E75",
"~. c #C2764C",
"^. c #C47B4D",
"/. c #CB7C4B",
"(. c #C97C46",
"). c #C27654",
"_. c #C47B54",
"`. c #CB7D54",
"'. c #C47C5B",
"]. c #CA7D5B",
"[. c #C1775B",
"{. c #D07F4B",
"}. c #C37C62",
"|. c #C97D62",
" X c #D08130",
".X c #BC8274",
"XX c #B6817C",
"oX c #BC847C",
"OX c #B98378",
"+X c #BE8051",
"@X c #CB824C",
"#X c #C5814D",
"$X c #C58354",
"%X c #CB8253",
"&X c #CC825C",
"*X c #C98459",
"=X c #D28656",
"-X c #D2855D",
";X c #D5895B",
":X c #D68A57",
">X c #CC8263",
",X c #C78166",
"<X c #D38462",
"1X c #D48963",
"2X c #D98A64",
"3X c #C28475",
"4X c #C4857B",
"5X c #C58A7E",
"6X c #CB8A7C",
"7X c #C9867B",
"8X c #D18E7E",
"9X c #CA917F",
"0X c #E19062",
"qX c #AC7C83",
"wX c #B27E83",
"eX c #9F7680",
"rX c #B58183",
"tX c #BC8483",
"yX c #BB868B",
"uX c #B98689",
"iX c #C28683",
"pX c #C48B83",
"aX c #CA8C84",
"sX c #C48B8A",
"dX c #CA8D8A",
"fX c #D18E85",
"gX c #CC9284",
"hX c #CC928C",
"jX c #C79088",
"kX c #D29384",
"lX c #D3948B",
"zX c #D5998B",
"xX c #DA9B8D",
"cX c #CE9391",
"vX c #D49792",
"bX c #C88E90",
"nX c #DDA093",
"mX c #E3A294",
/* pixels */
"R Y L K P K I L L J P W P L L L K P G J K K P K I J G K L L L K K Y Y T R N.N.N.N.N.R R R U Y N.N.Y U L K G K K L K Y Y ",
"3X3X4X.X4X4X6X6X6X6X6X8X7X7X7X4X4X7X}.4XaX|.7X7X7XaXdX|.fX7XdX|.7X4X3X6X6X8XkX6XfX6X6X8X6XY.Y..X3X!.!.}.W.!.3X4X!.!.4X3X",
").D.].`.].&X].-X].-X].).`.`.).'.].`.[.[.].].}.H.[.).).].].).|.).).[.'.$X`.].].].].].`.).D.J.Z.^.~.~.Z.Z.).).~.~.Z.D.D.D.",
"f.8.8.w.f.f.6.u.u.u.7.f.7.6.1.7.7.u.u.w.h.7.8.2.7.h.h.h.u.h.h.M.j.l.g.x.k.z.k.l.g.g.u.i.k.1.5.0.0.r.u.w.i.w.f.6.8.8.g.f.",
"] ) p ] ) ) ] { ] { { { ] ) ) ` ] } { } [ ] { } o.o.o.} } o.@.@.| X.O.1.O.O.1.1.>.>.{ X.O._ _ ` ( |  . . .' ' >.' ' ) ) ",
"      * - - =   = = = = = =   = - - 2 2 2 - : - - - : , : - : : = : 1 2 < 1 : 1 : O 1 : 2 = o o = = o   o X O o X       ",
"I I K K T T U T Q Q L.L.Q Q x H I E K.N.T R R Y T E R E E Y U I I T Q L.Q Q L.L.Q R E T Y K U Y Y K L R T Y T U T K.R E ",
"dXbXdXdXlXfXdXdXbXbXwX}.iXwXE E.rXtXoX4X7X8X8X7XpXpX8X8X8XfXiXiXtXiXkX8XkXgXpXtX5XaX5X5X5X.X5X5X5X4X6XkXfX6XfXkXlXkXlXgX",
").).`.].]._.`.[.[.[.G.U.J.V.B.C.H.+XH.H.F.#X@X$X_._.%X`._.Z.Z.Z.+X+X+X+XF.$X+X+XF.A.A.A.(.^.#X^.^.^.$X^.+X+XA.#XA.A._.Z.",
"a.5.r.c.a.5.7.u.7.7.6.6.6.,.>.4.e.0.q.2.9.9.0.t.y.0.t.0.e.q.f.2.e.e.=.e.t.r.t.e.e.9.9.e.t.*.=.-.t.w.w.9.t.t.;.=.:.=.0.e.",
"+.} ^ / } } ] ] ] ] ) ) ] ~ 0 ~ (  .( _ V ' |  ...` [ ` _  . .o.| | | O.O.#.O._ |  .| 1.X.` | | ( |  .` ( &.( |  .( ( ` ",
", , ; ;   *     * = * - ; * * ; : > : : 2 1 < 8 < > < < w e 8 7 8 8 8 8 < < < 3 < : < t 8 5 8 8 < : - : : : ; ; , ; : > ",
"n D F F F b D J G D D K I I Y T I Y E E E E E ! Q E ! ! L.P.L.L.! ! L.! I Z Z F H K H Z C G J G Z Z F Z & & Z Z Z H H G ",
"zXdXhXdXgXgXlXlXfXdXdXfXxXlXxXxXzXzXmXmXnXnXnXnXnXzXgXgXnXvXxXxXzXzXnX9XjXuXuXjXkXkX9X9X9X5X9XgXgXjXoXrXXXuX9XjXkXnXxXnX",
"H.S.S.S.D.D.F.D.D.D.J.D.J.J.~.`.$X@X$X+X+X$X$X@X@X$X+X$X$X$XF.+X+X+X+X+X+X+X$X:X+X+X$X#X#XF._.$X+X+X+XC.+X+X+X+X+XS.S.S.",
"e.=.4.5.y.r.r.u.7.7.@.@.@.7.$.$.;.*.=.=.;.;.:.s.;.s.:.:.:.:.s.;.t.t.t.s.e.9.x.d.:.t.s.t.y.t.:.*.t.;.e.=.e.=.e.e.e.=.=.t.",
"^ ^ ^ ^ ..} [ ^ } ] } [ ^ ^ ^  . .../ ( (  .( ( +. ./ ( ( / &.( +.&.&.&.&.` S 3.1...(  . . ./ } ^ ^ ^ ` } +./ / ^ ^ ^ ( ",
"4 > 4 > > : , < 6 > > > > ; ; ; ; ; , , , - ; , > < 8 > , , , , 8 < < > < ; O O 1 1 : < , ; : : , , : : : 4 4 ; , , = o ",
"l f z x b D z z x z b z k & $ & & $ d k k k k k f b v x x k x b F Z F F z l k $ k l Z Z G G H J G D F F v b x k l l l l ",
"lXvXvXcXlXdXcXhXdXdXhXdXlXvXhXaXoXtXaXdXsXsXdXdXcXvXhXjXaXtXpXgXvXhXjXjXpXgXjXtXjXpXuXpXvXzXgXgXgXpXpXjXhXvXhXpXiXpX5XjX",
"-X<X*XU.$X1X>X1X1X,XU.&X<X-X1X1X1X1X1X>X}.}.>XU.,X|.}.G.H.'.,X'.&X>XG.Y.H.$X*X_.$X*X>X*X*X'.H.Y.&X*X'.I.}.&X*XF.*X*X*X*X",
"u.r.t.e.e.s.s.i.i.0.0.y.r.5.0.s.t.e.w.w.7.w.7.7.w.a.7.7.q.1.e.e.w.g.g.i.j.i.i.i.e.i.p.p.i.e.q.g.i.i.r.w.w.j.p.i.i.i.t.u.",
"......%.&.=.%.+. ...( ......%...o.X. .o...o.@.%.$.o.{ o.[ [ o.X...[ @.O.X.O...O.O.o.O.o.X.{ [ [ o.o. .' } ..@.o.{ } { @.",
"4 5 5 5 7 0 6 8 6 9 i 7 y B i i e w 6 6 0 w 6 6 6 5 6 a a w 5 5 5 4 4 5 6 5 6 7 i w 4 6 6 4 6 6 w 9 y 6 6 y y w 4 6 6 6 ",
"d # # % % % s g v A A A J A v l s h d s d d k d d d d d l v b l f $ $ $ g f % % + + s g g h f d d m m m v m n n Z n v # ",
"oXW.tXtXXXXXXXuXyXhXlXdXdXpXqXqXT.Q.oXQ.wXiXiXtXtXtX!.XXW.oXpXpX5XoX5X5XoXOXOXT.OXW.OXoXoX.XW.W..X6XpXpXaXaXpXsXpXpXuXE.",
"*X*X*X*X*X'.'.U.&X].>X-X>X>X'.$X|.].].].[.[.'.).~.D.H.&X^.$X%X$X+X.X;X:X:X=X=X:X:X=X%X_._.^.`.=X=X=X-XF.*X`.`.`.].).).].",
"d.z.M.j.g.g.k.n.p.c.b.b.b.k.k.k.k.p.n.n.n.a.p.k.n.k.l.m. X X X Xm.b.m.b. X Xb.b.z.z.z.v.v.p.p.v.v.v.p.i.d.d.k.p.v.p.l.a.",
"$.-.*.=.e.w.t.=.=.;.;.-.*.%.#.3.1.*.;.;.;.*.*.*.=.-.=.t.:.;.;.-.#.=.=.*.;.;.*.5.4.2.2.t.;.-.-.:.-.=.*.;.-.-.$.$.-.$.#.$.",
"~ ~ _ _ M N 3 e 9 B M M 9 8 5 q 5 7 8 M N w u M N 8 8 N 8 8 < 8 8 y M M M ) N u e 8 r N M N M N B _ M M M 0 7 7 y 6 7 0 ",
"g h l l f $ $ # & @ . . . . + . @ + . + + @ @ @ % & $ F $ & $ f d k c g g g k x k k l Z b z Z F Z m l g l x f $ g l g k ",
"wXwXuXyXuXuXqXR.qXqXP.qXeXE.qXP.P.R.R.E.qXR.R.R.qXuXyXyXyXrXrXrXwXwXwXqXqXwXuXrXuXrXrXrXuXtXuXuXXXR.R.qXQ.rXtXtXwXR.R.wX",
"].|.,X,X}.}.}.U.}.U.}.U.}.}.}.}.}.}.U.}.U.H.}.Y.Y.[.Y.[.[.[.|.|.|.|.[.[.|.[.|.|.|.|.<X|.].].}.[.).].|.[.].).[.).D.D.[.].",
"k.x.l.x.l.z.x.k.k.k.z.k.l.k.u.h.u.h.7.k.h.h.h.h.7.f.f.h.h.h.f.f.7.f.f.f.h.h.M.a.M.M.M.k.k.u.w.u.h.h.h.M.c.w.6.8.p.k.l.M.",
"o.O.#.$.*.$.#.$.4.*.=.$.#.#.O.o.@.$.4.4.@.@.@.@.@.,.,.,.<.{ >.{ ,.,.@.,.<.@.<.<.@.{ { { ,.{ o.<.7.@.@.,.,.,.,.,.4.4.<.@.",
"6 y 9 y i B N N 6 y w w 6 5 4 3 a 4 6 w y y y 6 6 a y y a a a a 4 > 4 4 > - , a a a a a : 3 2 t t y y a w y r r q t r y ",
"f s s s # h f f # % # # % # # @ s d $ & & d k k d l m x x m A n n D D D n D D G D b x D z $ & $ d l l l k d l l b x c s ",
"OXOXXXXXoXoXXXtXtXtXiXiXtXoXiXtXdXcXsXwXqXyXdXiXyXbXlXxXcXcXvXvXvXvXcXfXbXlXvXfXbXdXiXyXrXP.T.R.eX}.iXiXwXT.T.T.T.T.T.T.",
"].*X&X-X&X*X1X>X,X<X<X2X<X1X2X0X0X2X].|.,X2X2X>X|.|.].].|.|.|.].|.|.].|.|.].].].|.[.Y.}.).V.[.).).|.[.[.D.D.D.J.J.).).`.",
"z.z.z.n.n.m.n.A.x.n.k.n.n.n.m.m.m.m.m.m.(.m.m.m.M.m.m.m.m.M.m.M.M.M.M.M.M.m.m.M.M.M.h.l.7.>.f.7.h.f.h.7.7.7.7.f.k.a.h.k.",
"6.O.=.=.t.y.y.0.1.4.;.t.*.;.-.=.*.;.t.t.r.7.u.r.$.$.-.$.o.O.O.$.$.@.#.@.#.$.$.#.6.@.,.,.,.V ,.,.>.,.,.,.] >.,.7.4.5.4.0.",
"i u B _ _ ` ` V B ~ _ ( ` _ | _ ` _ _ _ _ r u B M 9 0 0 y 6 B ~ 0 ~ ~ i y 0 ~ N p y y y y 2 w w q q a 2 a t t y p i u ) ",
"h g f h h j v x g v m m Z j h j g g d g g g l g g l l g g g f l v m m g c c g v c c g d f d @ % # @ # # $ d & & d s # s ",
"R.tXrXrXXXtXiXtXrXXXtXdXpXpXoXtXwXoX4XsXyXrXyXtXwXtXtXyXtXtXXXiXsXiXQ.iXdXiXiXtXwXdXyXtXwXwXT.I.T.T.T.R.qXE.T.T.T.T.R.T.",
"&X|.].].>X-X].].].].].-X-X-X&X'.).-X<X>X&X].|.}.|.].>X|.&X*X].*X].].|.].&X&X).].-X].[.].].).[.].).D.).[.).'.[.F.D.].].].",
"b.m.n.m.m.n.k.k.n.n.m.n.p.i.M.p.n.z.z.k.p.l.g.j.k.z.z.n.i.l.x.x.A.l.x.z.k.i.j.k.k.i.p.d.a.h.M.a.p.i.i.k.k.M.n.d.a.j.M.b.",
"e.4.4.@.#.<.<.<.6.6.7.4.4.4.4.4.$.$.#.O.o.<.<.4.#.$.O.X.3.2.S B.3.3.4.#.O.O.#.=.*.$.=.#.#.4.4.4.e.#.@.#.#.#.e.@.#.#.$.4.",
"7 i w w e i w w w p r u y i i i p B B ) i N u B ) B N i u r t w 8 8 6 y 0 t 7 N 0 u i u w i i i 7 w w e i e u N B N N e ",
"h h g g g x l k k c f g j l j j j j Z Z m v v m m m n n D J A m b n D J C b D b D x x v l l d # # s s d g $ % s f g s f ",
"XXXXQ.tXiXsXbXcXcXjXhXhXgX5XpXoXoXpXgXuXoXjXjXyXiXsXdXsXiXdXiXQ.iXtXaXpXaX4XiXQ.wX}.}.wXW.W.Y.Y.T.I.Y.Y.!.W.I.T.I.I.I.T.",
"`._.&X%X].].}.}.+X.X,X-X;X:X=X:X:X=X:X;X<X;X%X*X].&X`.`.`.`.].`.`.`.`.`.].{.`.`.`.`.{.`.).~.~.(.{.{./.(.{.(././.~.~.~.`.",
"k.k.z.l.J.l.j.C.C.C.A.z.m.m.z.b.m.m.m.z.z.z.z.n.n.n.v.n.M.c.m.m.v.c.v.v.M.c.a.a.a.a.M.p.c.c.c.c.c.a.c.c.c.c.c.c.p.c.a.c.",
"O.4.5.1.1.2.9.2.1.=.e.=.e.O.e.O.e.0.1.e.-.1.e.5.6.4.5.4.0.4.@.=.5.=.4.5.*.$.5.$.5.4.4.<.4.@.O.O.<.=.@.$.%.$.@.5.#.O.#.#.",
"q u u i y r S V q e 8 t 8 N N M 8 e N V V N V r r N r r u u u w r ) V u i B N e e y w < : 3 3 t e w 5 7 0 y u y u w y u ",
"l f v c # d $ g l x v v z v Z Z Z Z Z v l x b Z Z C C z v n C C P W W K P T Y W L L L L K K J P K J G J n n n n J n v n ",
"W.Y.3X3X3X3X4X.XoX5X5XoXOXOXT.W..XW.5X4XOX5X5XtXoXXXoXpXpXaXpXpX5XgXgXgXgXkXaXaXpXpX5XpX4XoXOXY..X3X3X.XW.!.OX.X.X.X!.Y.",
"@X(./.@X/./.`.~.~.~.~.Z.Z.~.H.^.^.~.^.^._.`./.^.$X%X=X%X$X$X'.*X@X=X%X_.^.H.^.%XZ.%X%X%X^.#X#X@X@X@X@X@X#X@X#X@X(.(.(.(.",
"y.a.r.c.a.a.r.7.w.r.u.5.5.a.a.a.p.i.i.y.a.a.a.y.v.y.t.v.v.v.b.v.s.s.y.v.p.p.p.s.s.b.d.i.p.s.b.b.b.y.s.s.b.s.s.y.t.w.t.d.",
",.,.{ { >.,.{ ,.,.<.{ { ,.{ @.@.4.o.X.o.@.@.@.4.4.@.#.#.$.@.O.#.@.#.@.#.o.o.} o.@.o.#.=.#.#.=.#.O.#.O.=.#.%.#.o.o.{ o.O.",
"w r w y q w w r p y y y y y y y a 3 q e p y y t y w w q e r u u i u i u e e p u u e N r e t 3 t e u e e w 7 t 7 a a q q "
};
